 <svg version="1.0" xmlns="http://www.w3.org/2000/svg" width="700.000000pt" height="467.000000pt" viewBox="0 0 700.000000 467.000000" preserveAspectRatio="xMidYMid meet">
<metadata>
Created by potrace 1.12, written by Peter Selinger 2001-2015
</metadata>
<g transform="translate(0.000000,467.000000) scale(0.100000,-0.100000)" fill="#000000" stroke="none">
<path d="M0 4325 c0 -342 0 -345 21 -345 11 0 29 4 39 10 14 7 20 6 24 -7 8
-19 2 -26 -22 -28 -9 -1 -27 -7 -39 -13 -21 -11 -23 -20 -23 -84 0 -75 0 -75
54 -53 16 7 16 4 -5 -33 -15 -25 -25 -36 -27 -27 -2 8 -8 15 -13 15 -5 0 -9
-82 -9 -194 0 -200 4 -219 41 -195 8 5 24 9 37 9 12 0 49 9 82 20 33 11 76 21
97 22 21 2 46 11 56 21 11 11 27 17 37 14 10 -2 24 -1 31 4 11 7 9 14 -12 33
-31 26 -23 56 14 56 16 0 18 -3 8 -9 -9 -6 -10 -11 -2 -15 17 -11 31 2 31 28
0 14 10 30 25 40 30 20 49 20 67 2 8 -7 26 -14 41 -13 16 0 30 -3 33 -6 10
-10 -8 -29 -22 -23 -10 4 -11 0 -3 -22 8 -21 7 -29 -7 -39 -10 -7 -26 -13 -36
-13 -10 0 -18 -4 -18 -9 0 -16 30 -21 51 -8 16 10 21 9 30 -3 7 -11 9 -1 7 35
-3 46 -1 50 21 53 17 3 21 0 15 -9 -4 -8 -9 -21 -9 -31 -1 -14 4 -16 23 -11
22 5 23 3 17 -17 -6 -20 -4 -22 19 -18 31 6 33 -2 6 -27 -29 -26 -16 -35 50
-35 59 0 60 1 86 41 l26 41 -21 19 c-21 19 -25 35 -21 73 1 10 -4 22 -12 27
-10 7 -9 12 7 27 23 22 102 44 111 31 3 -5 -6 -9 -20 -9 -14 0 -27 -4 -30 -9
-4 -5 3 -7 14 -4 17 5 20 0 20 -28 0 -26 3 -30 12 -21 17 17 48 15 48 -4 0
-12 6 -15 22 -11 14 4 30 0 41 -11 19 -16 19 -16 13 6 -9 27 16 41 39 22 8 -7
15 -9 15 -5 0 4 6 2 13 -4 8 -6 17 -8 20 -5 3 3 11 3 17 -1 8 -5 5 -12 -9 -22
-12 -8 -21 -23 -21 -33 0 -10 -5 -22 -11 -25 -7 -5 -4 -14 7 -26 9 -10 13 -19
8 -19 -26 -1 46 -29 75 -30 33 0 34 1 15 14 -19 14 -19 15 4 36 28 26 19 41
-27 42 -17 1 -31 6 -31 12 0 29 23 92 38 104 9 6 11 12 5 12 -16 0 -13 51 3
57 20 8 17 23 -5 23 -23 0 -29 14 -26 58 1 17 -2 32 -7 32 -4 0 -8 -4 -8 -10
0 -11 -33 -14 -43 -4 -3 3 -1 15 6 25 9 15 8 21 -7 32 -14 11 -16 16 -6 22 14
9 90 -14 90 -27 0 -5 5 -6 12 -2 6 4 8 3 5 -3 -3 -5 6 -19 21 -30 23 -16 31
-18 54 -8 26 10 27 12 13 39 -17 33 -13 46 14 39 11 -3 28 3 39 14 15 15 17
22 7 40 -7 13 -15 20 -18 16 -4 -3 -7 6 -7 21 0 17 4 25 11 20 7 -4 9 1 7 12
-2 11 -9 18 -15 17 -6 -1 -14 4 -17 12 -4 11 2 15 25 15 31 0 89 33 89 51 0 6
-5 7 -10 4 -16 -10 -41 16 -35 36 3 9 3 29 -1 44 -5 21 -11 26 -30 22 -13 -2
-21 0 -18 5 3 5 -4 12 -16 15 -22 6 -23 12 -5 71 5 16 3 22 -8 22 -18 0 -67
62 -67 85 0 13 7 15 35 9 21 -4 35 -2 35 4 0 11 -33 22 -67 22 -22 0 -27 8
-24 41 1 10 -10 21 -29 27 -16 6 -30 8 -31 4 0 -4 -4 3 -9 14 -6 16 -15 20
-34 17 -14 -3 -26 -12 -26 -19 0 -8 -7 -14 -15 -14 -29 0 -17 41 15 53 29 11
43 40 18 36 -17 -3 -49 11 -66 28 -7 7 -19 13 -27 13 -7 0 -26 7 -41 15 -25
13 -101 15 -496 15 l-468 0 0 -345z m487 142 c-2 -7 4 -23 14 -36 23 -29 24
-41 3 -41 -11 0 -14 -6 -9 -20 4 -12 2 -20 -5 -20 -13 0 -22 20 -24 55 0 14
-4 25 -8 25 -12 0 -9 35 4 48 13 13 31 5 25 -11z m73 13 c0 -5 -7 -10 -15 -10
-8 0 -15 5 -15 10 0 6 7 10 15 10 8 0 15 -4 15 -10z m-280 -29 c0 -11 -29 -35
-35 -29 -10 9 7 38 21 38 8 0 14 -4 14 -9z m100 -41 c0 -5 -4 -10 -10 -10 -5
0 -10 5 -10 10 0 6 5 10 10 10 6 0 10 -4 10 -10z m-155 -20 c3 -5 -1 -10 -9
-10 -9 0 -16 5 -16 10 0 6 4 10 9 10 6 0 13 -4 16 -10z m117 -115 c0 -64 -1
-67 -17 -62 -8 4 -17 2 -20 -3 -4 -6 -14 -6 -27 1 -21 11 -21 12 -3 25 10 7
22 11 28 7 9 -6 27 14 27 31 0 5 -13 6 -29 3 -34 -7 -44 9 -35 51 12 54 13 55
45 20 25 -26 32 -42 31 -73z m68 0 c-12 -15 -30 -12 -30 6 0 5 10 9 21 9 18 0
19 -2 9 -15z m175 -35 c3 -5 1 -10 -4 -10 -6 0 -11 5 -11 10 0 6 2 10 4 10 3
0 8 -4 11 -10z m-175 -36 c0 -7 9 -16 21 -19 20 -7 20 -8 -6 -21 -42 -22 -56
-18 -51 14 2 15 5 30 5 33 2 12 31 5 31 -7z m950 -53 c0 -12 -20 -25 -27 -18
-7 7 6 27 18 27 5 0 9 -4 9 -9z m-903 -17 c-3 -3 -12 -4 -19 -1 -8 3 -5 6 6 6
11 1 17 -2 13 -5z m-83 -69 c11 -15 17 -17 27 -8 9 9 15 8 26 -3 18 -18 10
-44 -17 -51 -16 -4 -18 -8 -9 -19 9 -11 15 -11 25 -3 11 9 18 8 29 -1 12 -10
15 -10 15 4 0 10 9 16 24 16 27 0 42 15 26 25 -17 11 -11 23 16 29 37 10 48
-6 24 -32 -26 -28 -10 -37 19 -11 12 12 25 18 29 14 3 -3 2 -9 -4 -13 -6 -4
-14 -17 -18 -29 -4 -12 -21 -32 -38 -45 l-31 -22 5 22 c4 12 2 22 -3 22 -5 0
-9 -9 -9 -20 0 -11 -7 -20 -16 -20 -8 0 -13 4 -9 9 3 6 -4 15 -15 21 -17 9
-20 8 -20 -10 0 -26 -17 -26 -25 1 -4 11 -9 18 -12 15 -3 -2 3 -36 13 -74 l18
-70 -25 -29 c-21 -25 -32 -29 -69 -29 -39 1 -45 -2 -48 -21 -4 -27 -27 -30
-36 -6 -5 11 3 25 24 43 16 14 30 31 30 38 0 7 7 12 15 12 8 0 15 -7 15 -16 0
-8 5 -12 11 -8 6 3 9 15 6 25 -3 11 0 19 6 19 7 0 5 5 -3 10 -22 15 -56 12
-70 -5 -19 -23 -33 -3 -20 29 5 15 8 32 4 37 -3 5 1 18 10 30 11 17 12 28 3
52 -8 23 -7 32 2 35 9 3 9 7 0 18 -8 10 -8 18 -1 27 16 19 59 15 76 -8z m909
0 c8 -19 -13 -31 -23 -14 -9 14 -4 29 10 29 4 0 10 -7 13 -15z m-333 -4 c0
-12 -20 -25 -27 -18 -7 7 6 27 18 27 5 0 9 -4 9 -9z m-710 -21 c0 -5 -7 -10
-16 -10 -8 0 -12 5 -9 10 3 6 10 10 16 10 5 0 9 -4 9 -10z m423 -9 c2 -11 0
-24 -6 -30 -8 -8 -8 -11 0 -11 6 0 16 7 23 15 7 8 22 15 34 15 12 0 27 5 33
11 8 8 17 7 34 -2 13 -7 31 -13 39 -14 8 0 15 -7 15 -15 0 -11 -9 -14 -31 -13
-33 3 -56 -23 -33 -38 15 -9 -14 -25 -65 -35 -36 -6 -39 -5 -34 13 4 14 -4 29
-23 48 -29 26 -34 53 -14 67 16 12 22 9 28 -11z m441 -17 c15 -6 23 -34 10
-34 -7 0 -34 27 -34 34 0 8 5 7 24 0z m-204 -8 c0 -3 -4 -8 -10 -11 -5 -3 -10
-1 -10 4 0 6 5 11 10 11 6 0 10 -2 10 -4z m-650 -16 c0 -5 -4 -10 -10 -10 -5
0 -10 5 -10 10 0 6 5 10 10 10 6 0 10 -4 10 -10z m1020 -3 c-14 -8 -27 -12
-30 -10 -7 6 23 23 40 23 8 0 4 -6 -10 -13z m-240 -11 c0 -7 -6 -19 -14 -25
-11 -9 -15 -8 -20 5 -3 9 -4 20 0 25 8 14 34 11 34 -5z m-838 -11 c1 -5 8 -15
17 -22 20 -14 10 -24 -41 -42 -62 -20 -76 2 -30 49 26 28 52 35 54 15z m753
-15 c-3 -5 -10 -10 -16 -10 -5 0 -9 5 -9 10 0 6 7 10 16 10 8 0 12 -4 9 -10z
m-305 -10 c0 -5 -7 -10 -16 -10 -8 0 -12 5 -9 10 3 6 10 10 16 10 5 0 9 -4 9
-10z m248 -17 c-2 -17 -12 -32 -25 -38 -13 -5 -23 -13 -23 -17 0 -12 -28 -9
-36 3 -4 7 1 16 10 21 9 5 16 16 16 24 0 8 4 13 9 10 5 -3 11 1 15 9 3 8 13
15 21 15 12 0 15 -8 13 -27z m-808 -2 c0 -6 -4 -12 -10 -16 -13 -8 -61 5 -54
16 7 12 64 12 64 0z m1190 -17 c0 -8 -4 -12 -10 -9 -5 3 -10 10 -10 16 0 5 5
9 10 9 6 0 10 -7 10 -16z m-505 -42 c-5 -24 -10 -29 -27 -24 -17 4 -19 2 -13
-17 4 -12 2 -21 -4 -21 -6 0 -11 4 -11 9 0 16 -40 8 -45 -9 -4 -12 -14 -15
-35 -12 -22 3 -30 0 -30 -11 0 -9 -10 -19 -22 -22 -13 -4 -31 -17 -40 -28 -23
-29 -35 -14 -14 17 9 14 16 33 16 42 0 28 31 54 64 54 17 0 42 9 55 19 14 10
31 17 38 14 7 -3 13 0 13 6 0 15 42 31 54 21 4 -4 5 -21 1 -38z m-514 15 c-10
-9 -11 -8 -5 6 3 10 9 15 12 12 3 -3 0 -11 -7 -18z m329 5 c0 -10 -22 -32 -32
-32 -5 0 -3 9 4 20 13 20 28 27 28 12z m415 -13 c11 -17 -1 -21 -15 -4 -8 9
-8 15 -2 15 6 0 14 -5 17 -11z m-825 -34 c-7 -8 -9 -19 -5 -25 3 -5 2 -10 -4
-10 -17 0 -22 19 -9 39 6 11 16 17 20 14 5 -2 4 -11 -2 -18z m360 17 c0 -13
-39 -46 -46 -40 -3 4 3 16 13 27 18 22 33 27 33 13z m414 -14 c-4 -13 -12 -31
-19 -40 -10 -16 -13 -16 -33 -2 -25 18 -30 49 -7 40 9 -3 18 1 21 9 4 8 15 15
26 15 15 0 18 -4 12 -22z m-699 -28 c-6 -9 7 -14 27 -11 14 2 -5 -30 -23 -40
-14 -7 -19 -6 -21 3 -4 37 -4 44 -1 51 2 4 9 7 14 7 6 0 7 -4 4 -10z m585 -24
c0 -16 -18 -31 -27 -22 -8 8 5 36 17 36 5 0 10 -6 10 -14z m53 -5 c2 -10 0
-25 -5 -34 -5 -11 -5 -24 2 -36 11 -22 3 -31 -23 -27 -23 3 -34 16 -14 16 21
0 22 20 3 45 -10 14 -11 25 -5 37 13 23 35 23 42 -1z m172 -2 c4 -12 3 -24 -1
-28 -15 -10 -12 -55 4 -67 12 -9 12 -13 2 -19 -7 -4 -16 -2 -20 5 -4 7 -13 9
-19 6 -14 -9 -14 17 0 31 7 7 3 18 -15 36 l-26 26 28 14 c37 20 40 20 47 -4z
m-845 1 c0 -5 -5 -10 -11 -10 -5 0 -7 5 -4 10 3 6 8 10 11 10 2 0 4 -4 4 -10z
m-66 -18 c15 -18 15 -21 -5 -45 -11 -15 -30 -27 -41 -27 -20 0 -20 1 -4 19 12
13 14 20 5 23 -15 5 -2 48 15 48 7 0 20 -8 30 -18z m946 -21 c-10 -20 -30 -29
-30 -13 0 4 8 18 17 32 19 27 30 12 13 -19z m-455 -1 c3 -5 -3 -10 -14 -10
-12 0 -21 5 -21 10 0 6 6 10 14 10 8 0 18 -4 21 -10z m305 -10 c0 -5 -5 -10
-11 -10 -5 0 -7 5 -4 10 3 6 8 10 11 10 2 0 4 -4 4 -10z m-640 -38 c0 -13 -12
-22 -22 -16 -10 6 -1 24 13 24 5 0 9 -4 9 -8z m690 -12 c0 -5 -4 -10 -10 -10
-5 0 -10 5 -10 10 0 6 5 10 10 10 6 0 10 -4 10 -10z m-430 -15 c0 -8 -7 -15
-15 -15 -9 0 -12 6 -9 15 4 8 10 15 15 15 5 0 9 -7 9 -15z m59 -4 c13 -23 -8
-73 -27 -66 -8 3 -20 5 -28 5 -8 0 -14 7 -14 16 0 12 6 15 21 11 15 -4 19 -2
15 9 -6 17 3 44 15 44 4 0 13 -8 18 -19z m62 -4 c-10 -9 -11 -8 -5 6 3 10 9
15 12 12 3 -3 0 -11 -7 -18z m329 -12 c-7 -9 -15 -13 -17 -11 -7 7 7 26 19 26
6 0 6 -6 -2 -15z m80 5 c0 -5 -4 -10 -10 -10 -5 0 -10 5 -10 10 0 6 5 10 10
10 6 0 10 -4 10 -10z m-758 -50 c-20 -19 -23 -19 -29 -4 -8 21 26 49 41 34 7
-7 3 -17 -12 -30z m-77 0 c8 7 15 7 19 1 6 -9 -30 -41 -46 -41 -5 0 -8 8 -8
18 0 12 -2 14 -8 4 -5 -8 -16 -10 -28 -5 -16 6 -17 4 -7 -8 10 -12 12 -49 4
-78 -2 -10 -42 40 -50 62 -10 26 0 35 64 55 23 7 32 6 38 -5 6 -11 12 -11 22
-3z m435 -19 c0 -5 10 -7 21 -4 16 4 20 2 17 -8 -3 -8 -10 -14 -16 -13 -7 1
-21 2 -32 3 -13 0 -17 6 -14 16 7 16 24 21 24 6z m-38 -53 c-7 -7 -12 -8 -12
-2 0 14 12 26 19 19 2 -3 -1 -11 -7 -17z m82 -19 c-3 -5 -10 -7 -15 -3 -5 3
-7 10 -3 15 3 5 10 7 15 3 5 -3 7 -10 3 -15z m-604 -9 c0 -11 -4 -20 -10 -20
-5 0 -10 9 -10 20 0 11 5 20 10 20 6 0 10 -9 10 -20z m1043 -27 c3 -5 1 -17
-4 -28 -4 -11 -8 -15 -9 -10 -1 6 -3 18 -5 28 -3 17 10 24 18 10z"></path>
<path d="M705 3989 c-4 -6 -1 -15 6 -20 21 -13 31 -11 27 8 -4 20 -24 28 -33
12z"></path>
<path d="M5290 4637 c0 -20 5 -39 11 -42 7 -5 8 5 3 32 -9 51 -14 54 -14 10z"></path>
<path d="M5743 4654 c-3 -8 -12 -13 -19 -10 -7 3 -16 1 -20 -5 -3 -6 -5 -76
-4 -157 1 -81 2 -169 2 -195 1 -42 4 -50 24 -58 36 -13 29 -26 -18 -34 -59
-10 -178 -12 -178 -2 0 4 -5 7 -11 7 -5 0 -7 -4 -4 -10 3 -5 -1 -10 -9 -10 -8
0 -17 4 -21 9 -6 11 -74 9 -93 -3 -7 -4 -12 -3 -12 2 0 6 -7 12 -15 16 -12 4
-13 2 -5 -13 8 -16 7 -18 -10 -14 -11 3 -20 0 -20 -6 0 -7 28 -11 78 -12 42
-1 91 -2 107 -4 17 -2 109 -6 205 -10 255 -10 290 -12 298 -19 3 -4 -95 -7
-218 -6 -124 0 -234 0 -245 0 -11 0 -104 2 -207 5 -120 3 -189 1 -193 -5 -4
-6 -13 -4 -23 7 -16 15 -17 15 -20 0 -4 -22 -18 -22 -26 0 -5 12 -9 14 -18 5
-24 -24 9 -31 172 -37 205 -7 314 -13 361 -21 22 -3 40 -1 44 5 4 7 33 9 78 6
250 -16 306 -16 332 1 14 9 25 23 25 30 0 8 6 14 14 14 21 0 29 30 8 32 -51 5
-90 8 -117 8 -47 0 -61 13 -47 45 16 34 15 55 -1 55 -10 0 -11 14 -6 58 3 31
3 62 -2 67 -8 11 2 73 16 95 6 10 11 9 22 -6 17 -23 46 -9 51 26 6 36 -12 44
-49 21 -19 -12 -38 -21 -43 -21 -5 0 -6 21 -3 47 3 26 3 62 0 80 l-6 33 -84 0
c-66 0 -85 -3 -90 -16z"></path>
<path d="M6145 4463 c4 -115 8 -255 10 -313 2 -58 2 -113 -1 -123 -3 -9 -23
-26 -45 -37 -21 -11 -40 -26 -41 -33 -3 -25 -4 -33 -13 -57 -4 -14 -17 -31
-27 -39 -12 -8 -18 -21 -15 -32 6 -22 -15 -31 -46 -21 -23 9 -48 8 -84 -4 -21
-6 -23 -3 -24 27 -1 31 -2 29 -17 -21 -11 -36 -22 -55 -32 -55 -25 1 -103 28
-135 47 -37 22 -69 23 -89 3 -8 -8 -20 -15 -26 -15 -6 0 -10 -6 -7 -12 2 -7 9
-12 15 -11 5 1 16 -4 22 -12 10 -12 9 -16 -4 -21 -9 -3 -16 -14 -17 -23 0 -10
-2 -12 -6 -3 -3 7 0 18 6 25 7 10 5 13 -11 14 -26 2 -29 6 -33 40 -9 73 -10
75 -77 77 -63 2 -82 -13 -107 -87 -15 -44 -16 -58 -5 -92 15 -47 17 -76 7 -73
-5 0 -16 -2 -27 -7 -11 -5 -26 -4 -35 2 -11 7 -20 7 -28 -1 -27 -25 -40 -31
-72 -34 -19 -2 -40 -10 -48 -18 -14 -13 -45 -20 -68 -14 -5 2 -20 2 -32 2 -29
-2 -38 14 -16 27 16 9 15 13 -17 41 -34 31 -36 31 -115 26 -44 -3 -233 -6
-420 -5 -187 0 -359 0 -382 -1 -23 0 -80 4 -127 10 -62 9 -105 9 -153 1 -38
-6 -178 -24 -313 -41 -135 -17 -326 -42 -425 -55 -99 -13 -198 -26 -220 -28
l-40 -3 3 -104 c2 -58 -1 -110 -5 -116 -4 -6 -37 -27 -73 -47 -39 -22 -59 -38
-50 -41 8 -2 64 -7 123 -11 131 -7 366 -31 387 -40 12 -4 20 7 34 45 21 60 35
71 53 43 14 -21 14 -20 67 8 112 61 195 89 262 89 35 0 64 -3 64 -7 0 -5 20
-16 45 -26 25 -11 45 -23 45 -29 0 -5 5 -6 12 -2 6 4 8 3 5 -3 -4 -6 5 -21 20
-34 14 -13 39 -42 55 -64 29 -39 31 -40 114 -50 92 -12 84 -16 88 44 0 11 7
26 14 33 7 7 12 9 11 3 -1 -5 1 -17 4 -25 3 -8 7 -24 9 -35 2 -12 12 -21 26
-23 17 -3 22 2 22 20 0 47 20 98 39 98 14 0 22 -14 33 -52 l15 -53 71 -3 c40
-2 72 -7 72 -12 0 -5 11 -10 25 -12 24 -3 24 -3 8 -38 -10 -19 -21 -38 -26
-41 -14 -10 -3 -88 19 -134 22 -47 51 -55 46 -13 -3 21 0 27 11 22 17 -6 31
-49 22 -65 -4 -5 -18 -8 -32 -7 -36 4 -59 -40 -61 -118 -1 -49 2 -63 14 -68
14 -5 12 -10 -10 -31 -23 -22 -38 -74 -17 -61 8 5 24 -64 17 -72 -2 -2 -12 10
-22 27 -17 29 -89 75 -103 66 -4 -2 -5 13 -3 34 3 29 -2 44 -23 69 -15 18 -32
32 -38 32 -16 0 -87 51 -87 62 0 6 9 12 20 15 19 5 20 13 19 112 -2 147 -10
193 -29 181 -8 -5 -10 -10 -4 -10 16 0 8 -199 -8 -216 -5 -4 -8 -38 -8 -76 0
-37 -4 -68 -8 -68 -11 0 -32 105 -32 157 l0 41 -39 -5 c-38 -5 -39 -4 -51 33
-16 48 -50 117 -56 112 -2 -2 1 -20 6 -39 17 -58 14 -203 -6 -257 -9 -26 -23
-52 -30 -58 -8 -6 -11 -14 -7 -17 3 -4 -2 -16 -12 -27 -10 -11 -15 -20 -12
-20 7 0 -17 -27 -117 -135 -41 -44 -77 -77 -80 -75 -3 3 11 22 30 42 18 20 34
41 34 45 0 5 13 22 29 37 33 32 121 177 121 200 0 8 5 18 10 21 6 3 10 22 10
40 0 26 3 33 15 29 12 -5 15 2 15 27 0 49 -10 80 -24 72 -6 -4 -6 0 2 9 9 11
10 26 4 54 -16 66 -37 124 -44 124 -5 0 -8 5 -8 10 0 13 -11 26 -66 84 -57 61
-121 87 -213 87 -65 0 -79 -3 -128 -33 -30 -18 -75 -50 -100 -70 -59 -50 -67
-48 -18 3 l40 42 -45 -31 c-92 -62 -189 -192 -191 -256 0 -12 -4 -30 -8 -41
-5 -12 -8 15 -7 67 1 88 -5 111 -26 90 -8 -8 -8 -12 -1 -12 6 0 13 -15 16 -32
3 -24 -1 -39 -16 -55 -24 -27 -45 -29 -73 -8 -20 15 -19 17 40 57 6 4 7 10 3
14 -9 9 -63 -20 -90 -48 -14 -14 -35 -18 -105 -20 -146 -2 -195 -5 -269 -17
-91 -14 -140 -14 -149 0 -3 6 -8 32 -9 57 -2 26 -8 48 -14 50 -10 3 -23 -31
-25 -67 -2 -33 -41 -68 -83 -76 -35 -5 -42 -4 -46 12 -4 15 -5 16 -6 1 -2 -28
10 -32 144 -43 44 -4 106 -8 138 -9 54 -2 58 0 63 24 14 65 26 67 40 8 l9 -43
80 -2 c44 -2 144 -3 223 -3 l142 0 0 -48 c0 -26 9 -80 20 -121 11 -41 20 -81
20 -88 0 -10 -20 -13 -80 -13 -55 0 -80 4 -80 12 0 6 -6 4 -13 -6 -11 -15 -32
-19 -118 -23 -104 -4 -138 -15 -109 -33 17 -11 182 -13 218 -4 12 4 22 13 22
20 0 19 19 18 26 -1 7 -17 49 -11 75 11 22 19 34 17 53 -9 12 -15 18 -18 22
-9 10 21 24 3 20 -26 -2 -15 -1 -18 1 -8 4 17 7 16 29 -9 13 -15 24 -31 24
-35 0 -9 -60 -53 -93 -67 -15 -7 -30 -20 -34 -30 -7 -20 -22 -33 -38 -33 -6 0
-5 3 1 8 15 10 27 62 15 62 -22 0 -87 -36 -107 -60 -16 -19 -30 -25 -55 -23
-43 2 -41 2 -59 13 -13 8 -12 11 5 24 13 9 24 11 32 5 13 -12 40 37 35 64 -4
21 -21 22 -28 2 -4 -8 -15 -15 -26 -15 -11 0 -22 -8 -25 -20 -3 -11 -11 -20
-19 -20 -7 0 -11 -6 -8 -13 2 -7 -2 -26 -10 -41 -8 -16 -12 -34 -10 -41 5 -11
-14 -21 -68 -39 -10 -3 -18 -10 -18 -15 0 -15 33 -22 42 -9 15 24 8 2 -12 -38
-10 -21 -19 -31 -20 -22 0 9 -12 30 -26 48 -22 26 -33 30 -65 28 -27 -1 -43 3
-52 16 -8 11 -19 15 -30 10 -14 -5 -15 -9 -6 -20 9 -11 6 -14 -15 -14 -28 0
-66 -27 -66 -46 0 -7 17 -18 38 -24 61 -19 84 -33 94 -59 7 -19 5 -27 -6 -33
-13 -7 -12 -13 5 -43 22 -36 12 -47 -15 -19 -29 29 -16 -1 14 -33 25 -27 28
-36 20 -57 -7 -18 -14 -24 -26 -19 -12 4 -15 3 -10 -5 4 -7 3 -36 -3 -65 -19
-99 -24 -167 -12 -167 7 0 9 5 6 10 -3 5 -1 10 6 10 6 0 18 8 26 17 13 17 14
17 11 -2 -2 -11 -17 -27 -35 -35 -27 -13 -33 -22 -38 -60 -3 -25 -14 -60 -23
-79 -11 -23 -17 -58 -16 -105 0 -69 1 -72 42 -116 23 -25 42 -49 42 -53 0 -4
24 -19 53 -33 28 -14 59 -30 68 -36 13 -9 42 -5 126 15 133 33 133 33 133 3 0
-13 6 -29 14 -35 16 -14 16 -8 18 -148 1 -56 -1 -105 -5 -110 -4 -4 -18 -1
-29 6 -12 8 -54 16 -93 18 -38 3 -73 10 -77 17 -5 7 -8 3 -8 -10 0 -18 9 -22
88 -32 48 -7 123 -21 167 -32 47 -11 131 -22 205 -25 193 -7 290 -17 260 -26
-84 -25 -699 25 -745 61 -5 4 -42 17 -80 29 -39 11 -91 34 -116 50 l-46 29 11
-31 c12 -32 64 -61 157 -88 56 -16 70 -27 68 -53 0 -12 -1 -41 0 -66 l1 -45
20 30 c11 17 18 36 15 42 -2 7 6 19 18 28 21 15 21 15 -11 15 -17 0 -32 5 -32
10 0 13 19 12 115 -5 44 -8 85 -14 91 -15 24 0 20 -207 -4 -231 -4 -4 -29 -1
-57 6 -78 21 -108 25 -295 46 -96 10 -202 24 -235 30 -33 7 -78 11 -100 11
-35 -1 -37 0 -16 8 l23 10 -23 19 c-43 33 -93 41 -167 26 -37 -8 -112 -18
-167 -24 -116 -11 -132 -4 -119 59 4 19 6 42 5 50 -1 8 -1 41 -1 73 l1 58 -39
16 c-38 14 -40 17 -46 72 -4 31 -12 73 -18 94 -10 33 -9 41 10 65 60 74 69 99
77 217 3 39 10 99 16 135 5 36 12 166 14 290 6 283 11 376 25 398 8 13 9 7 5
-24 -5 -33 -3 -43 10 -48 11 -4 15 -13 12 -26 -3 -11 1 -27 9 -34 8 -8 14 -22
14 -30 0 -9 4 -16 10 -16 5 0 9 21 7 48 -2 42 0 47 21 50 23 4 30 27 10 35
-10 3 -10 9 0 26 7 11 9 21 5 20 -42 -7 -58 16 -42 59 16 41 -7 131 -37 142
-12 5 -25 14 -29 19 -13 21 -21 10 -22 -30 -1 -22 -7 -47 -14 -55 -12 -15 -8
-23 40 -76 14 -16 22 -29 18 -29 -4 -1 -13 -2 -19 -3 -7 0 -14 -16 -16 -33 -4
-40 -32 -46 -32 -7 0 19 -4 25 -15 21 -22 -9 -28 10 -14 50 11 33 10 37 -12
54 -13 10 -34 19 -47 19 -24 0 -43 34 -34 60 8 22 52 86 52 76 0 -5 7 -3 15 4
8 7 15 23 15 36 0 13 22 68 49 124 27 55 53 110 57 122 13 45 69 127 86 128
10 0 21 14 29 37 10 31 9 38 -4 48 -17 12 -19 26 -19 129 0 42 -4 63 -9 55
-13 -21 -12 7 1 32 8 15 8 19 -2 17 -8 -2 -21 21 -33 58 -23 70 -82 146 -135
173 -19 10 -86 30 -147 45 -119 28 -175 28 -257 -1 -42 -14 -162 -102 -213
-155 -29 -30 -153 -229 -153 -246 -1 -27 -18 -32 -76 -21 -113 20 -169 40
-269 100 -97 57 -115 62 -212 55 -49 -3 -172 -5 -275 -6 l-188 0 0 -170 c0
-144 2 -170 15 -170 20 0 19 -34 -1 -55 -15 -15 -16 -38 -7 -233 6 -121 6
-222 1 -228 -4 -6 -8 -387 -8 -846 l0 -835 29 -1 c43 -1 111 -21 111 -33 0 -7
12 -8 30 -4 16 3 50 3 75 -1 37 -5 49 -12 58 -33 6 -14 17 -33 24 -42 9 -11
10 -24 2 -52 -5 -20 -14 -37 -19 -37 -6 0 -1 -9 10 -20 25 -25 25 -50 0 -92
-15 -27 -17 -41 -10 -73 5 -22 8 -68 8 -103 -1 -34 4 -68 10 -74 11 -11 5 -38
-9 -38 -5 0 -9 6 -9 14 0 22 -62 30 -77 9 -7 -9 -16 -14 -19 -10 -4 4 -1 13 5
21 7 8 10 20 6 27 -5 8 -1 9 15 4 14 -4 20 -3 17 2 -4 6 4 8 20 5 18 -3 24 -1
19 7 -4 6 -14 11 -22 11 -8 0 -14 7 -14 15 0 9 -6 12 -15 9 -8 -4 -15 -12 -15
-19 0 -7 -6 -15 -13 -17 -18 -7 -38 2 -31 14 9 14 -17 29 -38 22 -14 -4 -18 1
-19 23 -2 23 -2 24 -6 6 -6 -30 -17 -29 -31 2 -7 15 -8 25 -2 25 15 0 12 28
-5 37 -26 15 -57 128 -39 146 3 3 16 2 28 -2 20 -8 39 2 44 24 1 5 18 8 37 6
26 -2 35 1 35 12 0 23 -26 28 -57 12 -42 -22 -61 -19 -68 12 -4 16 -20 38 -36
51 l-29 24 0 -296 0 -296 159 0 c118 0 161 3 164 13 4 10 6 10 6 0 1 -10 98
-13 453 -13 248 0 449 2 446 5 -3 3 -35 6 -72 6 -36 1 -69 5 -72 10 -3 5 -14
9 -25 9 -11 0 -31 7 -44 16 -13 9 -29 13 -34 10 -5 -4 -12 -2 -16 3 -3 6 -12
8 -19 5 -7 -3 -19 2 -26 11 -7 8 -21 15 -31 15 -23 0 -69 21 -69 32 0 4 -9 8
-19 8 -11 0 -23 9 -26 20 -4 11 -11 18 -16 14 -13 -8 -49 24 -49 43 0 8 -5 11
-10 8 -6 -3 -10 -1 -10 4 0 18 16 13 77 -27 93 -60 145 -81 333 -131 63 -17
131 -38 150 -47 30 -12 102 -14 490 -12 327 2 454 6 453 14 -1 7 36 13 110 17
62 4 151 9 198 13 76 6 87 5 92 -11 4 -9 5 -21 1 -26 -3 -5 194 -9 488 -9
l493 0 18 43 c17 40 19 41 33 22 8 -11 17 -30 21 -42 4 -20 12 -23 54 -23 27
0 49 4 49 8 0 5 -20 30 -44 56 -49 54 -54 81 -25 137 l18 36 106 13 c60 7 111
8 115 4 5 -5 14 -64 21 -131 l13 -123 39 0 c39 0 39 0 34 32 -15 85 -29 199
-25 203 2 3 24 -10 48 -28 34 -24 40 -33 26 -35 -15 -3 -16 -5 -2 -15 13 -11
12 -19 -5 -72 -24 -75 -24 -85 0 -85 15 0 23 15 38 73 11 39 24 72 29 71 17
-1 269 -126 272 -135 2 -5 197 -9 474 -9 l470 0 -16 24 c-16 26 -40 115 -32
123 3 3 10 -13 16 -36 22 -81 90 -90 90 -12 0 20 4 42 8 48 10 16 120 27 177
19 40 -6 43 -10 50 -44 4 -20 15 -48 26 -63 10 -15 19 -34 19 -43 0 -12 10
-16 43 -16 37 0 43 3 43 22 0 12 -11 33 -23 46 -22 23 -30 52 -18 64 3 3 34
-2 70 -10 48 -12 65 -20 69 -36 6 -18 8 -19 19 -6 8 11 22 14 41 10 39 -7 35
-26 -4 -22 -17 2 -30 -1 -30 -7 0 -6 3 -10 8 -9 4 1 18 -2 30 -6 17 -6 22 -13
19 -27 -5 -17 1 -19 44 -19 50 0 62 13 38 37 -6 6 -8 16 -5 22 9 14 56 -28 50
-44 -5 -11 82 -13 455 -14 l461 -1 0 1335 0 1336 -21 22 -20 22 20 3 c21 3 21
8 21 282 l0 278 -94 1 c-52 1 -168 -5 -258 -13 -194 -18 -403 -34 -513 -40
-44 -3 -81 -5 -83 -5 -2 -1 0 -5 3 -11 3 -5 18 -10 33 -11 l27 -1 -28 -11
c-31 -12 -31 -32 0 -32 12 0 25 -4 29 -8 5 -4 1 -5 -9 -1 -10 3 -17 1 -17 -5
0 -6 11 -13 25 -17 14 -4 24 -9 21 -12 -3 -3 0 -12 7 -20 10 -13 9 -15 -7 -8
-19 6 -19 6 -3 -12 16 -18 14 -32 -5 -32 -5 0 -6 5 -3 10 3 6 1 10 -4 10 -6 0
-11 -11 -11 -25 0 -24 3 -25 58 -27 31 0 71 -2 87 -4 17 -1 36 -2 44 -3 10 -1
8 -8 -9 -26 -24 -25 -20 -41 10 -45 41 -6 49 0 52 38 3 35 5 37 40 40 33 3 38
7 51 45 l15 42 7 -30 c3 -16 8 -36 10 -42 3 -10 36 -11 140 -6 149 7 159 2
100 -43 -41 -31 -44 -44 -12 -44 16 0 18 -3 9 -9 -8 -4 -14 -12 -13 -17 0 -5
-8 -7 -17 -5 -15 3 -66 8 -99 10 -7 1 -23 13 -37 27 -23 26 -25 26 -77 14 -68
-15 -121 -32 -135 -42 -7 -5 -27 -9 -45 -8 -75 1 -84 -7 -50 -44 17 -19 75
-101 96 -135 13 -23 -50 25 -79 59 -13 16 -28 39 -31 50 -5 14 -12 19 -24 15
-12 -3 -34 11 -70 45 -44 42 -50 53 -41 69 9 17 5 24 -27 47 -59 43 -61 47
-26 39 35 -7 55 10 22 20 -11 4 -18 9 -15 12 3 4 1 13 -6 20 -7 8 -13 22 -14
31 -13 86 -18 102 -34 107 -17 5 -17 9 -4 33 7 15 10 28 5 30 -9 3 -3 50 8 56
17 11 184 16 196 6 8 -7 21 -7 36 -2 14 5 57 5 99 1 72 -8 81 -6 225 38 83 25
175 59 205 74 30 16 96 39 145 52 l90 23 3 273 2 273 -23 -5 c-21 -6 -22 -3
-24 51 -1 31 -2 59 -3 62 -1 3 -1 33 0 68 1 63 -4 71 -38 53 -24 -13 -18 -121
6 -121 15 -1 15 -2 0 -11 -14 -8 -18 -23 -18 -65 0 -34 -4 -53 -10 -49 -5 3
-10 26 -10 51 0 48 -2 49 -31 34 -14 -8 -19 -21 -19 -50 0 -21 -4 -42 -10 -45
-5 -3 -10 4 -10 15 0 19 -4 21 -26 16 -20 -5 -27 -3 -31 14 -5 21 -23 28 -23
10 0 -19 -61 -70 -84 -70 -10 0 -15 88 -20 325 -3 132 -6 252 -6 268 0 15 -4
27 -10 27 -5 0 -10 -12 -10 -27 0 -38 -14 -57 -35 -49 -12 4 -16 15 -13 38 3
32 2 33 -40 36 -26 2 -50 -2 -59 -10 -13 -10 -17 -10 -20 0 -4 9 -43 12 -150
12 l-145 0 7 -207z m385 143 c0 -19 -4 -24 -16 -19 -10 4 -14 14 -11 29 2 13
0 24 -5 24 -5 0 -6 5 -3 10 10 16 35 -15 35 -44z m-225 24 c-3 -5 -10 -10 -16
-10 -5 0 -9 5 -9 10 0 6 7 10 16 10 8 0 12 -4 9 -10z m85 1 c0 -6 -4 -13 -10
-16 -5 -3 -10 1 -10 9 0 9 5 16 10 16 6 0 10 -4 10 -9z m-70 -51 c-18 -11 -24
-6 -16 16 5 14 9 15 19 5 9 -9 9 -14 -3 -21z m137 -12 c-3 -8 -6 -5 -6 6 -1
11 2 17 5 13 3 -3 4 -12 1 -19z m-130 -64 c-5 -39 -15 -37 -19 5 -3 31 -1 37
9 29 8 -6 12 -21 10 -34z m178 -114 c3 -5 -1 -10 -10 -10 -9 0 -13 5 -10 10 3
6 8 10 10 10 2 0 7 -4 10 -10z m-65 -35 c0 -8 -7 -15 -15 -15 -16 0 -20 12 -8
23 11 12 23 8 23 -8z m-60 -29 c0 -14 -29 -31 -38 -22 -2 3 -2 12 1 21 8 19
37 20 37 1z m-70 -30 c0 -15 -24 -28 -34 -19 -7 7 13 33 25 33 5 0 9 -6 9 -14z
m280 -151 c0 -8 -7 -15 -15 -15 -16 0 -20 12 -8 23 11 12 23 8 23 -8z m-200
-84 c0 -6 -5 -13 -10 -16 -15 -9 -43 3 -35 15 8 13 45 13 45 1z m-75 -37 c-22
-16 -40 -8 -25 11 6 8 19 11 27 8 14 -5 14 -8 -2 -19z m95 -36 c0 -9 -4 -20
-10 -23 -6 -4 -10 9 -10 32 0 28 3 34 10 23 5 -8 10 -23 10 -32z m-470 -208
c0 -5 -2 -10 -4 -10 -3 0 -8 5 -11 10 -3 6 -1 10 4 10 6 0 11 -4 11 -10z
m-440 -52 c0 -11 -12 -10 -30 2 -12 7 -10 9 8 7 12 0 22 -5 22 -9z m-50 -36
c0 -13 2 -14 9 -4 11 18 57 11 53 -8 -7 -29 9 -101 20 -94 7 4 8 2 4 -4 -10
-16 -36 -15 -36 1 0 9 -3 8 -9 -2 -7 -11 -11 -9 -21 8 -9 18 -14 20 -25 11
-11 -9 -12 -17 -4 -34 9 -17 9 -19 -1 -9 -17 15 -31 105 -19 118 5 5 9 17 9
28 0 10 5 15 10 12 6 -3 10 -14 10 -23z m423 -4 c31 -15 47 -43 20 -35 -10 2
-25 8 -34 11 -11 5 -18 1 -22 -13 -7 -27 -27 -27 -27 -1 0 11 5 20 10 20 6 0
10 7 10 15 0 18 8 19 43 3z m-267 -19 c36 -22 45 -36 17 -24 -10 4 -22 8 -28
9 -30 7 -55 18 -55 27 0 15 31 10 66 -12z m149 -9 c3 -5 1 -10 -4 -10 -6 0
-11 5 -11 10 0 6 2 10 4 10 3 0 8 -4 11 -10z m1160 -19 c3 -5 1 -12 -5 -16 -5
-3 -10 1 -10 9 0 18 6 21 15 7z m-1330 -11 c4 -6 15 -8 25 -5 22 7 34 -12 44
-67 8 -43 0 -47 -32 -18 -12 11 -28 20 -37 20 -8 0 -15 5 -15 11 0 5 -4 7 -10
4 -5 -3 -10 -1 -10 4 0 6 5 11 12 11 9 0 9 3 0 12 -7 7 -12 18 -12 25 0 15 26
17 35 3z m-1396 -24 c31 -6 42 -5 37 3 -4 6 0 11 9 11 9 0 14 -4 11 -9 -3 -5
1 -11 9 -15 8 -3 15 -2 15 2 0 4 39 4 88 0 73 -6 175 -9 369 -8 19 0 35 -6 41
-16 9 -15 10 -15 16 4 6 18 13 21 34 16 52 -11 54 -13 48 -42 -4 -24 -3 -23
10 6 13 29 17 32 30 21 13 -10 17 -10 23 0 10 15 36 4 64 -27 15 -16 16 -24 7
-41 -12 -24 -18 -25 -55 -11 -18 7 -24 7 -20 -1 12 -18 -5 -79 -20 -79 -8 0
-15 -7 -15 -15 0 -8 -8 -19 -18 -24 -14 -7 -18 -18 -14 -41 4 -25 1 -32 -17
-37 -14 -4 -22 -16 -27 -42 -4 -20 -11 -42 -16 -48 -6 -7 -7 -24 -4 -39 4 -14
2 -32 -4 -39 -9 -11 -9 -72 0 -82 8 -10 3 -30 -10 -40 -21 -16 -19 -47 5 -53
11 -3 21 -11 21 -18 1 -7 3 -14 4 -17 1 -3 3 -8 5 -12 1 -5 7 -21 14 -38 7
-17 11 -60 9 -102 -2 -50 0 -69 8 -62 20 17 54 -63 54 -128 l0 -60 37 -11 c31
-9 42 -9 61 4 23 15 23 15 12 -6 -6 -11 -47 -58 -91 -103 -62 -63 -79 -87 -74
-102 4 -11 7 -27 9 -35 9 -56 53 -110 89 -110 25 0 72 -42 61 -53 -10 -10 17
-39 31 -33 22 8 30 -12 27 -63 -4 -49 -5 -51 -30 -44 -15 3 -32 12 -39 18 -8
8 -56 12 -145 13 l-133 1 45 -17 c74 -28 62 -41 -33 -38 -91 3 -112 10 -102
34 5 15 -10 32 -29 32 -4 0 -6 -13 -4 -30 4 -24 2 -27 -9 -19 -7 7 -13 24 -13
40 l0 29 190 -7 190 -6 -6 31 c-5 24 -2 33 15 44 57 35 4 44 -239 38 -245 -6
-267 -10 -253 -47 4 -11 -1 -12 -20 -7 -18 4 -32 1 -42 -10 -23 -22 -9 -38 26
-31 24 5 29 3 29 -12 0 -10 -4 -24 -9 -32 -8 -12 -12 -12 -25 -2 -10 8 -16 9
-16 3 0 -6 5 -14 10 -17 6 -3 10 -10 10 -16 0 -12 -37 -12 -45 1 -3 6 -14 10
-23 10 -14 0 -18 11 -19 58 -1 66 -29 145 -42 123 -7 -11 -11 -9 -20 7 -6 11
-11 29 -11 40 0 11 -6 25 -13 31 -8 6 -20 29 -27 51 -10 32 -18 40 -37 40 -16
0 -27 8 -33 24 -5 13 -13 27 -19 30 -6 4 -8 13 -4 21 3 9 -1 15 -10 15 -9 0
-24 3 -34 6 -14 4 -15 4 -4 -4 7 -5 15 -21 16 -34 2 -13 12 -39 24 -58 42 -70
21 -72 -30 -3 -61 82 -107 114 -169 120 l-45 5 48 -42 c26 -23 46 -45 43 -48
-3 -3 -19 9 -36 26 -33 35 -64 43 -53 15 5 -12 2 -15 -10 -10 -19 7 -24 -17
-7 -28 6 -4 4 -12 -5 -21 -15 -15 -17 -25 -19 -91 -1 -17 -4 -34 -7 -38 -4 -3
-3 -23 2 -43 13 -58 12 -65 -11 -44 -23 21 -29 74 -12 95 10 12 10 16 0 20
-10 3 -10 7 -1 17 6 7 9 19 6 26 -3 8 0 14 7 14 9 0 11 14 7 50 -4 29 -2 48 3
45 5 -3 11 4 15 15 3 11 10 20 15 20 5 0 7 7 4 15 -7 18 23 68 36 60 4 -3 6 3
3 13 -2 10 4 26 15 35 18 16 19 16 30 -8 13 -27 31 -32 50 -13 16 16 15 28 -2
28 -21 0 -46 28 -40 44 3 8 14 12 25 9 12 -3 19 0 19 8 0 8 3 25 7 38 4 16 2
22 -4 18 -7 -4 -9 0 -7 11 3 9 1 43 -4 74 -9 58 5 118 27 118 20 0 22 -22 2
-27 -24 -6 -23 -5 -15 -27 3 -9 12 -16 20 -16 11 0 13 -13 11 -55 -2 -30 0
-55 5 -55 5 0 2 -7 -7 -16 -11 -11 -14 -25 -10 -45 4 -17 2 -29 -3 -29 -11 0
-3 -42 9 -50 4 -3 10 -16 13 -30 5 -20 0 -29 -24 -46 l-31 -21 66 -2 c37 -1
75 -6 85 -11 10 -6 27 -7 37 -4 12 4 14 3 6 -3 -9 -7 -3 -23 25 -64 36 -54
106 -186 116 -221 11 -36 25 -16 31 45 4 40 1 83 -8 122 l-14 60 -38 -2 c-26
-1 -34 1 -25 7 11 7 8 11 -13 19 -15 6 -27 15 -27 21 0 15 32 12 55 -5 12 -10
30 -13 50 -9 26 4 37 0 64 -25 18 -17 44 -31 56 -31 13 0 27 -5 31 -12 4 -7 3
-8 -4 -4 -7 4 -12 3 -12 -2 0 -14 30 -24 50 -17 13 4 18 17 18 51 1 39 -4 50
-33 80 -19 19 -35 41 -35 48 0 8 -15 25 -34 39 -26 20 -36 23 -46 14 -9 -9
-11 -9 -6 0 3 6 1 13 -5 15 -19 6 -1 44 26 56 26 12 35 55 15 67 -23 14 -8 33
32 39 49 8 68 21 68 48 0 15 6 19 28 18 57 -4 66 7 38 46 -13 16 -18 17 -36 6
-28 -17 -46 -5 -25 18 11 12 13 20 6 25 -17 10 -13 57 6 71 10 7 15 16 11 20
-5 4 -16 0 -25 -9 -21 -19 -53 -6 -53 21 0 10 -6 24 -12 30 -10 10 -8 14 7 18
23 6 50 57 40 74 -3 5 -14 10 -23 10 -11 0 -13 3 -5 11 5 5 36 13 67 16 l56 6
1 -44 c0 -24 1 -82 1 -127 0 -62 3 -81 11 -73 8 8 10 51 8 126 l-3 115 31 6
c35 7 35 8 21 35 -9 16 -7 19 10 19 11 0 20 7 20 15 0 8 -7 15 -15 15 -24 0
-17 19 10 26 29 7 31 16 10 34 -13 11 -13 15 5 30 13 12 17 21 10 25 -10 6 10
35 25 35 13 0 35 29 26 35 -6 3 -95 2 -198 -1 -245 -10 -306 -9 -376 0 -49 7
-61 6 -77 -9 -11 -10 -20 -13 -20 -8 0 6 -24 9 -62 7 -84 -4 -114 13 -129 71
-6 25 -15 45 -20 45 -4 0 -17 -20 -28 -45 -23 -53 -48 -65 -136 -71 -107 -6
-169 -12 -197 -19 -39 -10 -36 9 7 52 39 39 41 43 21 43 -7 0 -26 -16 -40 -35
-15 -19 -35 -35 -45 -35 -11 0 -21 -7 -25 -15 -6 -17 -36 -21 -36 -5 0 6 -7
10 -16 10 -8 0 -13 -4 -10 -9 7 -11 -18 -21 -52 -21 -25 1 -26 2 -9 14 16 12
16 14 1 20 -10 4 -18 0 -21 -13 -6 -25 -14 -27 -114 -41 -71 -10 -84 -9 -91 3
-6 13 -14 13 -38 4 -27 -10 -32 -9 -47 13 -9 13 -18 33 -19 44 -1 12 -5 35 -9
51 l-6 30 20 -24 c12 -13 21 -34 21 -48 0 -23 3 -25 28 -19 15 4 45 9 67 11
22 2 63 6 91 9 50 5 51 5 46 -19 -3 -19 0 -25 13 -25 14 0 16 6 11 35 -6 29
-4 34 9 29 8 -3 15 -1 15 5 0 6 4 11 10 11 5 0 7 -7 4 -15 -9 -22 9 -18 24 5
9 15 22 20 50 19 20 -1 29 -3 20 -6 -35 -9 -18 -24 20 -17 52 9 75 23 42 25
-17 1 -20 3 -7 6 9 2 15 8 12 13 -5 8 -126 4 -152 -5 -9 -3 -13 6 -13 25 0 20
5 30 15 30 8 0 15 -5 15 -11 0 -8 4 -8 14 0 7 6 27 11 42 10 16 0 58 2 93 7
48 5 62 4 57 -4 -4 -7 -3 -12 3 -12 5 0 15 8 20 18 10 16 12 16 26 -2 22 -29
19 -36 -14 -36 -39 0 -48 -16 -15 -24 27 -7 53 14 54 42 0 7 5 10 10 7 17 -10
11 -51 -11 -79 -26 -33 -15 -33 28 0 18 14 57 36 86 49 29 14 66 41 81 60 35
43 56 46 56 6 0 -17 5 -33 10 -36 6 -3 10 5 10 19 0 38 39 51 150 50 52 0 115
-4 139 -8z m811 -33 c0 -13 -3 -13 -15 -3 -8 7 -15 19 -15 27 0 13 3 13 15 3
8 -7 15 -19 15 -27z m-1235 8 c3 -5 -8 -19 -25 -31 -31 -22 -61 -20 -88 6 -11
12 -10 16 10 23 30 13 95 14 103 2z m1973 0 c11 -7 11 -9 -1 -14 -16 -6 -27 0
-27 15 0 10 11 10 28 -1z m493 0 c30 -6 -4 -91 -36 -91 -7 0 -21 -8 -30 -17
-16 -15 -21 -15 -58 -2 -53 18 -71 57 -42 89 13 14 28 20 42 17 13 -2 25 -1
28 3 4 6 72 7 96 1z m-335 -16 c4 -8 14 -15 23 -15 9 0 23 -6 30 -12 9 -9 15
-9 17 -3 7 19 72 5 77 -16 6 -24 -5 -31 -37 -23 -19 4 -26 1 -31 -16 -4 -14
-12 -19 -22 -15 -13 4 -13 3 -4 -8 9 -11 8 -17 -2 -26 -8 -6 -17 -8 -20 -4 -4
3 -13 0 -21 -6 -12 -10 -13 -9 -9 9 7 27 -14 67 -38 73 -13 4 -21 -3 -28 -24
-5 -16 -15 -29 -20 -29 -6 0 -12 -12 -12 -27 -1 -21 -3 -23 -6 -9 -3 11 -18
31 -34 45 -34 30 -41 83 -11 81 24 -3 62 11 62 22 0 5 13 7 30 3 19 -4 30 -3
30 4 0 16 20 13 26 -4z m-199 -47 c-2 -13 -4 -5 -4 17 -1 22 1 32 4 23 2 -10
2 -28 0 -40z m-117 18 c6 -8 19 -12 28 -9 13 5 14 3 6 -6 -13 -14 -46 -11 -44
3 1 5 -4 13 -12 17 -8 5 -9 9 -2 9 6 0 17 -6 24 -14z m-2282 -31 c3 -22 0 -27
-13 -22 -9 4 -18 1 -22 -8 -5 -13 -7 -13 -19 2 -20 26 -17 42 9 53 32 13 42 7
45 -25z m-1810 -4 c-14 -23 -36 -31 -60 -22 -32 11 2 36 55 40 15 1 15 -2 5
-18z m1730 -9 c2 -12 0 -22 -5 -20 -4 1 -39 -2 -77 -7 -54 -6 -70 -5 -77 6
-15 23 -10 39 11 39 11 0 20 -5 20 -11 0 -8 4 -8 13 -1 17 14 46 20 82 19 23
-2 31 -7 33 -25z m-258 -1 c0 -5 -7 -22 -15 -37 -8 -16 -15 -42 -15 -59 l0
-30 -15 29 c-19 36 -19 56 1 84 15 22 44 30 44 13z m2679 -5 c9 -11 6 -12 -14
-8 -14 2 -22 8 -19 13 8 13 20 11 33 -5z m731 6 c8 -4 17 -22 18 -41 4 -32 3
-33 -27 -29 -18 3 -36 -1 -42 -8 -11 -13 -49 -7 -49 8 0 5 -5 6 -11 3 -16 -10
-80 -12 -76 -2 4 14 86 46 92 36 3 -5 17 2 31 16 25 26 38 29 64 17z m-3492
-26 c4 -17 2 -17 -22 -1 -32 21 -32 22 -3 20 12 -1 23 -9 25 -19z m3552 -16
c0 -22 -16 -35 -25 -20 -9 14 4 52 16 45 5 -4 9 -15 9 -25z m-3450 6 c0 -3 -4
-8 -10 -11 -5 -3 -10 -1 -10 4 0 6 5 11 10 11 6 0 10 -2 10 -4z m3500 -20 c0
-15 -24 -28 -34 -19 -13 14 -5 33 14 33 11 0 20 -6 20 -14z m-3495 -15 c-3
-10 1 -24 10 -31 12 -10 13 -16 4 -26 -9 -11 -7 -14 10 -14 35 0 24 -17 -16
-24 -61 -10 -128 -7 -141 6 -20 20 -15 65 8 71 11 3 18 2 15 -2 -6 -11 69 -51
91 -50 17 1 17 2 2 6 -21 5 -25 68 -5 76 23 10 28 7 22 -12z m929 4 c11 -8 29
-15 41 -15 30 0 48 -20 34 -37 -14 -17 -33 -17 -23 0 5 8 2 8 -9 -2 -11 -9
-17 -10 -17 -2 0 8 -5 8 -19 -1 -15 -9 -23 -9 -33 0 -8 6 -33 12 -56 13 -23 2
-42 6 -42 10 0 11 42 19 67 13 19 -5 23 -2 23 15 0 25 8 26 34 6z m243 -37
c-3 -7 -5 -2 -5 12 0 14 2 19 5 13 2 -7 2 -19 0 -25z m1053 -20 c0 -4 -3 -8
-7 -9 -5 0 -16 -2 -25 -4 -18 -3 -24 6 -12 18 8 8 44 4 44 -5z m-1375 -8 c-3
-5 -12 -10 -18 -10 -7 0 -6 4 3 10 19 12 23 12 15 0z m1424 7 c-2 -1 -15 -11
-29 -22 l-25 -20 19 23 c11 12 24 22 29 22 6 0 8 -1 6 -3z m-224 -127 c-10
-11 -22 -20 -28 -20 -5 0 1 9 14 20 31 25 37 25 14 0z m-49 -28 c-4 -11 -13
-22 -20 -25 -11 -4 -11 1 1 24 16 33 29 33 19 1z m1669 -11 c-3 -6 -11 -8 -17
-5 -6 4 -5 9 3 15 16 10 23 4 14 -10z m56 -6 c-30 -26 -150 -85 -172 -85 -17
0 9 29 42 46 16 8 37 14 47 14 10 0 34 11 53 24 45 32 69 33 30 1z m-6191 7
c0 -20 -194 -102 -207 -88 -6 6 176 95 195 96 6 0 12 -4 12 -8z m170 -78 l45
-28 -33 -9 c-46 -14 -79 4 -102 56 -29 63 -25 76 13 40 17 -17 52 -43 77 -59z
m5495 66 c3 -5 1 -10 -4 -10 -6 0 -11 -7 -11 -15 0 -8 -4 -15 -10 -15 -11 0
-13 11 -4 34 7 18 20 21 29 6z m119 -11 c-8 -14 -54 -10 -54 4 0 9 10 12 30 9
16 -2 27 -8 24 -13z m-81 -11 c9 -31 2 -33 -11 -3 -6 14 -8 25 -3 25 5 0 11
-10 14 -22z m564 0 c-3 -8 -6 -5 -6 6 -1 11 2 17 5 13 3 -3 4 -12 1 -19z
m-3123 -33 c30 -19 57 -43 61 -54 3 -10 14 -26 25 -36 11 -10 20 -22 20 -27 0
-13 -53 -9 -75 5 -25 17 -136 37 -201 37 l-49 0 29 -23 c16 -13 26 -29 23 -34
-8 -13 -49 -5 -59 11 -5 6 -8 2 -8 -11 0 -12 8 -24 19 -28 10 -3 18 -13 18
-23 0 -41 4 -52 18 -52 8 0 15 -4 15 -9 0 -15 -27 -61 -32 -55 -3 2 -8 -2 -12
-11 -4 -13 -2 -14 14 -5 28 15 42 12 75 -16 l30 -26 -47 7 c-44 6 -49 4 -59
-19 -11 -23 -37 -42 -46 -32 -2 2 -6 17 -8 32 -6 36 -13 69 -15 69 -1 0 -4 14
-7 30 -9 53 -6 102 8 126 7 13 12 28 11 33 -2 4 2 14 8 21 6 7 13 22 15 33 4
22 34 57 74 85 36 25 88 15 155 -28z m1247 18 c-12 -8 -21 -22 -22 -31 0 -9
-3 -12 -5 -5 -7 16 26 64 38 57 5 -3 0 -13 -11 -21z m1291 -18 c4 -20 1 -25
-15 -25 -16 0 -18 3 -10 11 6 6 9 18 6 25 -3 8 -1 14 5 14 5 0 12 -11 14 -25z
m-2926 -17 c-18 -26 -22 -17 -5 14 6 11 13 17 16 15 3 -3 -2 -16 -11 -29z
m3184 16 c0 -2 -7 -4 -15 -4 -8 0 -15 4 -15 10 0 5 7 7 15 4 8 -4 15 -8 15
-10z m30 6 c0 -5 -4 -10 -10 -10 -5 0 -10 5 -10 10 0 6 5 10 10 10 6 0 10 -4
10 -10z m290 0 c0 -12 -28 -25 -36 -17 -9 9 6 27 22 27 8 0 14 -5 14 -10z
m-464 -7 c-10 -10 -66 -13 -66 -4 0 6 16 10 35 9 19 -1 33 -3 31 -5z m-1848
-20 c0 -10 1 -24 3 -32 2 -8 -4 -17 -13 -19 -19 -4 -35 38 -23 57 10 17 34 13
33 -6z m1517 -3 c3 -5 1 -10 -4 -10 -6 0 -11 5 -11 10 0 6 2 10 4 10 3 0 8 -4
11 -10z m260 -10 c4 -6 -10 -10 -37 -9 -40 1 -41 2 -13 9 43 11 43 11 50 0z
m-2975 -43 c0 -12 9 -47 20 -77 22 -59 25 -97 10 -120 -10 -16 -14 -10 -23 40
-3 14 -12 51 -20 82 -15 55 -13 98 4 98 5 0 9 -10 9 -23z m-1634 -49 c-3 -16
1 -48 9 -71 21 -60 19 -63 -16 -29 -29 28 -34 30 -92 24 -57 -5 -61 -4 -48 11
9 11 23 15 42 12 24 -4 27 -2 24 16 -3 12 -2 19 1 16 3 -3 20 10 37 28 37 37
52 35 43 -7z m2804 32 c0 -5 -4 -10 -9 -10 -6 0 -13 5 -16 10 -3 6 1 10 9 10
9 0 16 -4 16 -10z m-4065 -66 c0 -20 -6 -30 -19 -32 -31 -6 -41 14 -22 43 22
33 41 28 41 -11z m4082 10 c9 -23 -11 -38 -26 -20 -13 16 -7 36 10 36 5 0 12
-7 16 -16z m-812 -43 c8 -16 20 -31 27 -33 10 -4 10 -9 -2 -23 -8 -10 -10 -16
-3 -12 7 4 23 -4 37 -18 14 -14 20 -25 13 -26 -9 0 -9 -2 1 -6 17 -7 15 -33
-3 -33 -10 0 -15 -10 -15 -30 0 -36 -6 -37 -65 -6 l-46 25 38 10 c21 6 48 11
61 11 25 0 25 0 12 34 -5 14 -17 26 -26 26 -10 0 -14 -5 -10 -15 7 -19 -5 -19
-30 0 -22 16 -62 19 -84 6 -18 -12 -34 -3 -22 12 5 7 13 23 17 36 8 26 53 70
72 71 7 0 19 -13 28 -29z m115 21 c0 -13 -12 -22 -22 -16 -10 6 -1 24 13 24 5
0 9 -4 9 -8z m-2795 -34 c-4 -13 -10 -40 -12 -62 l-5 -39 -87 8 c-47 5 -96 8
-108 8 -13 -1 -23 5 -23 13 0 7 -10 19 -22 25 -23 12 -23 12 -5 -9 21 -23 15
-42 -12 -42 -21 0 -45 48 -39 77 3 16 17 19 115 23 62 3 115 9 119 13 4 4 25
7 47 7 36 0 39 -2 32 -22z m-505 -41 c0 -4 -6 -5 -12 -1 -10 6 -10 4 -2 -7 16
-22 16 -76 0 -82 -11 -5 -15 7 -18 54 -4 73 0 88 18 64 8 -10 14 -23 14 -28z
m4044 22 c-3 -5 -10 -7 -15 -3 -5 3 -7 10 -3 15 3 5 10 7 15 3 5 -3 7 -10 3
-15z m-3974 1 c0 -5 -4 -10 -9 -10 -6 0 -13 5 -16 10 -3 6 1 10 9 10 9 0 16
-4 16 -10z m60 1 c0 -13 -64 -51 -85 -51 -12 0 -6 9 21 29 40 30 64 38 64 22z
m6174 0 c4 -5 -3 -7 -14 -4 -23 6 -26 13 -6 13 8 0 17 -4 20 -9z m-4241 -8
c-7 -2 -19 -2 -25 0 -7 3 -2 5 12 5 14 0 19 -2 13 -5z m2900 -20 c18 -20 8
-41 -29 -61 -21 -11 -21 -10 -14 23 4 19 6 35 3 35 -2 0 -1 5 2 10 9 15 20 12
38 -7z m1374 1 c-3 -3 -12 -4 -19 -1 -8 3 -5 6 6 6 11 1 17 -2 13 -5z m93 -14
c12 -8 9 -10 -12 -10 -15 0 -30 5 -33 10 -8 13 25 13 45 0z m-6806 -6 c9 -3
14 -10 11 -15 -7 -10 -35 0 -35 12 0 11 3 11 24 3z m522 -21 c-10 -10 -19 5
-10 18 6 11 8 11 12 0 2 -7 1 -15 -2 -18z m2724 -9 c0 -8 -4 -14 -10 -14 -5 0
-10 9 -10 21 0 11 5 17 10 14 6 -3 10 -13 10 -21z m3520 -30 c0 -9 -38 13 -60
34 -23 22 -22 22 18 -3 23 -15 42 -29 42 -31z m-5167 20 c11 -15 16 -32 12
-42 -6 -15 -8 -14 -16 6 -9 24 -25 29 -32 10 -3 -9 -14 -3 -33 16 -27 26 -27
28 -6 21 13 -4 22 -2 22 4 0 20 35 10 53 -15z m-198 -24 c3 -5 -1 -10 -10 -10
-9 0 -13 5 -10 10 3 6 8 10 10 10 2 0 7 -4 10 -10z m2963 -48 c-6 -27 -23 -16
-26 18 -2 33 -2 34 13 15 9 -11 14 -26 13 -33z m51 35 c12 -15 5 -27 -16 -27
-7 0 -13 9 -13 20 0 23 13 26 29 7z m-3936 -14 l87 -6 0 -38 0 -38 -95 -3
c-52 -2 -95 -1 -95 2 0 3 -63 4 -141 2 l-140 -4 3 44 3 43 132 0 c77 0 129 4
125 9 -3 6 3 6 14 2 10 -5 58 -10 107 -13z m1045 -15 c18 -11 31 -22 29 -24
-4 -4 -127 42 -136 52 -14 14 77 -10 107 -28z m-768 12 c0 -5 -4 -10 -10 -10
-5 0 -10 5 -10 10 0 6 5 10 10 10 6 0 10 -4 10 -10z m30 -16 c0 -12 3 -14 13
-6 8 6 21 6 37 0 16 -6 20 -12 13 -16 -7 -4 -17 -20 -23 -36 -9 -25 -14 -28
-45 -24 -19 2 -35 0 -35 -4 0 -10 -82 -47 -92 -42 -3 3 -6 33 -6 67 1 59 3 63
25 65 29 2 85 -37 79 -55 -3 -7 -1 -13 3 -13 5 0 11 7 15 15 3 8 1 15 -4 15
-11 0 -14 33 -3 43 11 12 23 7 23 -9z m-732 -20 c-2 -16 -10 -27 -25 -30 -34
-9 -50 1 -47 28 1 12 3 23 3 23 1 0 17 1 36 2 31 1 34 -1 33 -23z m578 -49 c2
-47 -2 -75 -12 -89 -16 -24 -16 -23 -16 79 1 90 0 87 13 83 7 -2 13 -33 15
-73z m2834 -15 c0 -5 -2 -10 -4 -10 -3 0 -8 5 -11 10 -3 6 -1 10 4 10 6 0 11
-4 11 -10z m-3071 -44 c-14 -15 -11 -53 6 -59 8 -4 17 -2 20 3 3 5 25 15 48
21 38 10 40 12 23 24 -29 21 -9 39 21 20 14 -10 22 -12 19 -6 -11 17 10 13 28
-5 22 -21 13 -32 -37 -44 -23 -6 -61 -20 -84 -32 -52 -27 -61 -20 -63 52 -2
75 -2 76 14 54 9 -12 11 -23 5 -28z m3046 34 c3 -6 -1 -7 -9 -4 -18 7 -21 14
-7 14 6 0 13 -4 16 -10z m93 -14 c3 -14 0 -15 -22 -5 -32 15 -34 30 -3 25 12
-1 23 -10 25 -20z m-2744 -1 c-6 -16 -24 -21 -24 -7 0 11 11 22 21 22 5 0 6
-7 3 -15z m-645 -35 c5 -16 16 -30 24 -30 8 0 18 -7 21 -15 3 -9 11 -15 18
-14 26 3 39 -1 33 -11 -3 -5 1 -10 9 -10 8 0 18 5 21 10 3 6 21 10 39 10 30 0
33 -3 31 -27 -1 -16 -7 -39 -14 -52 -12 -21 -18 -23 -54 -17 -120 18 -115 16
-121 51 -4 18 -15 44 -26 58 -23 29 -27 77 -6 77 8 0 19 -13 25 -30z m-109 11
c0 -5 -9 -11 -20 -14 -11 -3 -20 -1 -20 3 0 5 8 11 18 13 9 3 18 5 20 6 1 0 2
-3 2 -8z m4089 -115 c8 -5 16 -3 22 5 14 24 18 5 4 -26 -10 -22 -14 -25 -14
-11 -1 19 -1 19 -15 1 -12 -17 -17 -18 -57 -6 -24 7 -50 15 -58 17 -9 3 -10 8
-3 17 12 13 100 16 121 3z m-579 -100 c0 -3 -4 -8 -10 -11 -5 -3 -10 -1 -10 4
0 6 5 11 10 11 6 0 10 -2 10 -4z m-1967 -118 c7 -45 -2 -49 -26 -9 -20 34 -21
53 -5 69 14 14 21 1 31 -60z m61 53 c3 -5 0 -21 -8 -36 l-14 -27 1 36 c1 35
10 46 21 27z m1336 -36 c0 -14 -4 -25 -9 -25 -4 0 -6 11 -3 25 2 14 6 25 8 25
2 0 4 -11 4 -25z m-1470 -15 c0 -6 -17 -29 -38 -53 -21 -23 -52 -62 -70 -86
l-32 -44 4 39 c5 48 15 74 28 74 6 0 3 -12 -7 -27 -9 -16 11 2 45 40 63 69 70
74 70 57z m1240 0 c0 -5 -2 -10 -4 -10 -3 0 -8 5 -11 10 -3 6 -1 10 4 10 6 0
11 -4 11 -10z m-1060 -72 c0 -10 -5 -18 -11 -18 -7 0 -9 -10 -7 -25 3 -14 2
-25 -2 -25 -4 0 -12 -10 -18 -22 -10 -22 -11 -22 -13 7 -2 42 0 55 18 93 16
34 33 29 33 -10z m1850 6 c9 -7 16 -23 17 -35 1 -12 8 -29 16 -38 8 -9 31 -59
52 -111 20 -52 40 -101 42 -107 11 -29 -24 -9 -46 25 -25 40 -141 274 -141
286 0 10 42 -4 60 -20z m407 -14 c10 0 24 5 31 12 15 15 24 6 27 -29 1 -15 9
-44 18 -63 8 -19 18 -53 21 -75 3 -22 3 -34 0 -27 -8 17 -31 15 -42 -5 -8 -13
-13 -4 -28 43 -9 32 -16 64 -15 69 2 6 0 7 -4 3 -11 -10 -75 59 -75 80 0 30
13 35 31 13 10 -12 26 -21 36 -21z m-317 -13 c0 -18 -2 -19 -10 -7 -13 20 -13
43 0 35 6 -3 10 -16 10 -28z m477 -51 c-3 -6 -11 5 -19 24 -11 26 -12 39 -4
49 8 11 12 5 19 -25 4 -21 6 -42 4 -48z m-2512 34 c-3 -5 -12 -10 -18 -10 -7
0 -6 4 3 10 19 12 23 12 15 0z m1019 -36 c31 -12 16 -24 -29 -24 -49 0 -62 16
-17 23 15 2 28 5 29 6 1 0 8 -2 17 -5z m1249 1 c10 -4 13 -19 11 -53 -2 -26
-5 -80 -7 -119 l-4 -73 61 -1 c33 -1 74 -4 90 -8 31 -6 48 -31 22 -31 -9 0
-16 -6 -16 -12 -1 -7 -3 -33 -5 -58 -1 -25 -6 -115 -10 -200 -3 -85 -9 -164
-12 -175 -10 -34 -23 31 -16 82 5 37 3 43 -12 43 -14 0 -15 3 -5 15 7 9 10 18
6 22 -3 3 -6 1 -6 -6 0 -7 -4 -10 -10 -6 -5 3 -6 13 -3 21 5 13 -4 15 -68 9
-96 -8 -98 -9 -95 -39 3 -22 0 -24 -30 -19 -41 7 -45 -9 -10 -32 19 -12 29
-14 44 -6 16 9 21 7 25 -9 3 -11 0 -23 -5 -27 -7 -3 -8 -1 -4 6 6 9 0 11 -21
7 -15 -2 -32 -5 -36 -5 -5 -1 -5 -6 -2 -12 4 -6 14 -8 22 -4 12 4 13 2 6 -7
-6 -7 -9 -21 -8 -30 2 -10 -3 -18 -10 -18 -7 0 -15 -9 -18 -21 -5 -18 -3 -18
11 -7 15 11 14 10 -1 -14 -12 -19 -14 -28 -5 -28 8 0 9 -3 1 -11 -6 -6 -8 -30
-5 -55 3 -31 1 -44 -8 -44 -7 0 -10 6 -7 13 2 7 -5 82 -17 167 -18 127 -24
150 -32 128 -5 -16 -13 -24 -19 -20 -16 11 -102 138 -126 185 -12 23 -31 56
-44 72 -12 17 -26 45 -30 63 -7 35 2 112 14 112 4 0 15 -16 24 -35 9 -19 21
-35 26 -35 5 0 21 -20 35 -45 15 -25 31 -45 36 -45 5 0 12 -11 16 -25 3 -14
10 -25 14 -25 5 0 6 -9 3 -20 -3 -11 1 -27 8 -36 8 -9 22 -35 32 -58 l17 -41
-5 65 c-12 164 -18 210 -26 210 -5 0 -9 6 -9 14 0 15 49 26 118 26 l42 0 0 45
c0 36 -5 51 -25 69 -14 13 -25 31 -25 40 0 22 37 21 42 -1 3 -10 8 7 12 37 5
30 10 58 13 63 5 8 26 9 46 2z m-1222 -52 c-12 -20 -14 -14 -5 12 4 9 9 14 11
11 3 -2 0 -13 -6 -23z m767 -7 c26 13 28 13 38 -12 12 -30 7 -154 -7 -169 -8
-8 -11 5 -8 32 0 4 -9 10 -20 15 -27 9 -27 24 -1 31 34 9 23 27 -12 20 l-33
-6 24 23 c23 22 23 24 5 31 -10 3 -20 6 -20 5 -1 0 -5 -23 -9 -51 -10 -77 -15
-67 -15 31 1 84 2 87 15 62 14 -25 16 -26 43 -12z m1442 -21 c0 -36 -49 -48
-75 -17 -24 27 -19 37 22 42 47 7 53 5 53 -25z m216 -27 c4 -18 8 -36 8 -40 1
-3 4 -10 9 -14 4 -4 7 -14 7 -22 0 -13 -3 -12 -19 2 -18 16 -19 16 -23 1 -2
-12 -10 -4 -27 25 l-24 43 24 18 c33 25 36 24 45 -13z m-2166 12 c0 -5 -14
-10 -31 -10 -17 0 -28 4 -24 10 3 6 17 10 31 10 13 0 24 -4 24 -10z m-1346
-72 c6 -4 0 -8 -14 -8 -14 0 -32 5 -40 10 -10 6 -11 10 -3 10 7 0 16 12 20 27
l6 28 10 -30 c6 -17 15 -33 21 -37z m-115 -24 c17 -12 26 -13 34 -5 14 14 57
15 57 1 0 -5 -8 -7 -17 -3 -10 3 -15 3 -11 -2 4 -4 0 -14 -8 -23 -12 -11 -18
-12 -23 -3 -4 6 -15 9 -24 5 -10 -3 -17 -1 -17 5 0 6 -11 11 -25 11 -16 0 -25
6 -25 15 0 20 30 19 59 -1z m1420 -5 c-14 -8 -29 -3 -29 11 0 4 9 6 21 3 15
-4 17 -8 8 -14z m-1829 -9 c0 -5 -2 -10 -4 -10 -3 0 -8 5 -11 10 -3 6 -1 10 4
10 6 0 11 -4 11 -10z m590 -67 c0 -90 19 -244 31 -258 11 -11 12 -69 2 -79 -4
-4 -13 8 -19 26 l-12 33 -2 -40 c0 -33 -2 -37 -11 -22 -6 10 -11 39 -12 63 0
30 -5 48 -16 54 -13 7 -13 12 -3 32 16 29 17 60 8 176 -7 88 -6 92 13 92 19 0
21 -6 21 -77z m-460 15 c3 -4 17 -11 32 -17 14 -5 36 -23 48 -40 l22 -31 -39
22 c-43 24 -113 87 -113 102 0 8 37 -18 50 -36z m3170 -31 c0 -7 9 -13 20 -14
18 -2 19 0 5 13 -23 23 -18 38 16 53 23 10 33 11 42 2 8 -8 9 -14 1 -19 -20
-14 -23 -41 -7 -90 9 -29 13 -57 8 -68 -5 -13 -9 -15 -12 -6 -3 6 -16 12 -29
12 -17 0 -27 8 -34 25 -5 14 -15 26 -22 26 -7 1 -20 2 -28 3 -10 1 -15 13 -16
36 -1 19 -4 45 -8 57 -13 41 5 49 36 14 15 -17 28 -37 28 -44z m268 10 c53 -6
72 -1 72 19 0 8 7 14 15 14 8 0 15 -7 15 -15 0 -23 18 -18 60 15 26 21 49 30
73 30 44 0 57 -17 23 -30 -35 -13 -33 -30 3 -30 17 0 31 -6 35 -16 5 -13 9
-14 21 -4 24 20 65 4 65 -25 0 -29 -7 -31 -30 -10 -13 12 -46 16 -149 17 -72
1 -134 -2 -138 -5 -6 -6 12 -9 74 -11 12 -1 27 -6 33 -13 16 -15 -11 -22 -67
-19 -24 1 -43 -2 -43 -6 0 -4 7 -8 17 -8 14 0 14 -2 -3 -21 -17 -19 -19 -19
-30 -4 -11 15 -13 15 -24 -5 -7 -12 -18 -19 -26 -16 -9 4 -14 -2 -15 -17 -2
-42 -4 -48 -19 -57 -8 -5 -25 -10 -37 -10 -13 0 -23 -6 -23 -14 0 -8 -7 -17
-16 -20 -10 -4 -13 -13 -9 -27 5 -15 3 -20 -6 -17 -7 2 -14 13 -15 24 -2 10
-6 31 -10 47 -5 22 -3 27 11 27 10 0 49 25 86 55 65 52 82 75 59 75 -5 0 -10
8 -10 18 0 19 -18 42 -33 42 -5 0 -7 -11 -5 -25 3 -14 2 -25 -3 -25 -8 0 -13
23 -23 95 l-6 40 16 -31 c14 -27 24 -32 62 -37z m-3249 -17 c7 -31 7 -48 -1
-55 -7 -7 -9 -5 -6 5 3 8 2 24 -2 35 -16 44 -21 80 -11 70 5 -5 14 -30 20 -55z
m298 3 c-3 -10 -5 -2 -5 17 0 19 2 27 5 18 2 -10 2 -26 0 -35z m2528 37 c3 -5
1 -10 -4 -10 -6 0 -11 5 -11 10 0 6 2 10 4 10 3 0 8 -4 11 -10z m-3055 -71 c0
-5 -4 -9 -10 -9 -5 0 -10 7 -10 16 0 8 5 12 10 9 6 -3 10 -10 10 -16z m537
-11 c-3 -8 -6 -5 -6 6 -1 11 2 17 5 13 3 -3 4 -12 1 -19z m3476 -30 c4 -28 2
-57 -3 -63 -5 -6 -7 -22 -4 -36 14 -65 16 -90 9 -106 -11 -23 -12 -29 -14 -51
0 -10 -10 -18 -21 -19 -19 -2 -19 -1 1 53 24 63 20 133 -9 156 -15 12 -16 11
-3 -5 30 -38 1 -25 -49 21 l-52 49 29 19 c32 22 59 32 89 33 18 1 22 -6 27
-51z m-1028 1 c9 -17 14 -33 11 -36 -4 -4 -36 49 -36 62 0 13 11 2 25 -26z
m105 15 c0 -17 -22 -14 -28 4 -2 7 3 12 12 12 9 0 16 -7 16 -16z m-3040 -20
c0 -8 5 -14 10 -14 6 0 10 -4 10 -10 0 -14 -13 -13 -35 4 -11 8 -16 19 -12 30
8 19 27 12 27 -10z m260 -4 c0 -5 -5 -10 -11 -10 -5 0 -7 5 -4 10 3 6 8 10 11
10 2 0 4 -4 4 -10z m52 -10 c12 0 18 -7 18 -21 0 -13 -4 -18 -12 -13 -24 14
-48 37 -48 48 0 6 5 5 12 -2 7 -7 20 -12 30 -12z m1152 -12 c-3 -4 -9 -8 -15
-8 -5 0 -9 4 -9 8 0 5 7 9 15 9 8 0 12 -4 9 -9z m1520 -64 c3 -8 2 -12 -4 -9
-6 3 -10 10 -10 16 0 14 7 11 14 -7z m230 1 c19 -14 18 -15 -11 -15 -31 0 -48
11 -36 24 10 10 26 7 47 -9z m-243 -45 c24 0 25 -37 5 -105 -12 -38 -12 -54
-3 -84 15 -44 34 -49 90 -22 58 28 151 36 204 17 41 -14 41 -14 51 12 6 15 13
40 17 55 4 19 16 33 38 42 47 20 82 -4 103 -70 9 -27 23 -63 32 -80 8 -16 21
-42 28 -57 8 -14 14 -33 14 -40 0 -24 47 -38 123 -37 129 1 290 -36 375 -88
24 -15 28 -22 20 -36 -5 -10 -7 -25 -4 -33 3 -8 2 -22 -3 -32 -5 -9 -14 -29
-21 -43 -17 -38 -98 -74 -242 -109 -131 -32 -208 -42 -468 -65 -447 -40 -551
-46 -589 -35 -18 4 8 9 79 14 60 5 111 13 120 21 19 16 74 26 86 16 16 -15
157 -19 204 -6 25 7 37 13 28 14 -32 2 -203 63 -230 83 -16 10 -32 17 -37 14
-5 -3 -11 3 -14 14 -3 11 -2 18 1 16 15 -8 47 41 48 71 0 32 0 32 -20 15 -11
-9 -26 -21 -34 -27 -8 -5 -27 -23 -42 -39 -15 -15 -32 -26 -37 -23 -5 3 -15 2
-23 -4 -12 -7 -9 -9 10 -9 23 -1 23 -2 7 -11 -14 -8 -22 -8 -30 0 -19 19 -55
12 -165 -30 -209 -80 -216 -82 -347 -81 -126 1 -192 17 -291 72 -87 49 -119
108 -44 81 36 -12 79 -5 81 13 7 58 8 77 9 114 0 24 5 40 10 37 6 -3 7 1 4 9
-6 14 5 21 29 17 4 0 7 7 7 18 0 20 26 31 78 31 25 0 32 -4 32 -20 0 -16 -7
-20 -32 -21 -18 -1 -37 -1 -41 0 -5 1 -7 -4 -5 -11 5 -13 19 -13 101 -5 39 5
66 21 54 34 -4 4 -13 1 -19 -5 -8 -8 -15 -9 -25 -1 -15 13 -18 33 -3 24 6 -3
10 -2 10 3 0 5 24 8 54 7 l54 -3 -24 23 c-21 21 -24 33 -23 92 1 60 2 65 12
41 6 -16 17 -28 24 -28 7 0 13 -4 13 -10 0 -5 -7 -7 -16 -3 -12 4 -15 2 -12
-8 3 -8 9 -13 14 -12 5 0 17 -14 26 -33 17 -32 17 -34 0 -34 -15 -1 -15 -2 2
-15 11 -8 28 -15 39 -15 35 0 6 -20 -31 -21 -22 -1 -28 -3 -15 -6 12 -2 24
-11 27 -19 4 -11 -1 -14 -22 -10 -15 2 -33 5 -39 5 -7 1 -13 6 -13 12 0 5 4 8
8 5 5 -3 9 1 9 9 0 19 -56 -34 -57 -52 0 -13 -18 -17 -52 -14 -10 1 -18 -3
-18 -8 0 -6 -11 -11 -24 -11 -19 0 -23 -4 -19 -20 3 -11 9 -20 14 -20 5 0 9
-10 9 -21 0 -20 1 -21 25 -5 13 9 28 16 32 16 4 0 1 -5 -7 -10 -10 -7 16 -10
83 -10 73 0 104 4 122 16 14 9 25 21 25 26 0 5 16 30 35 55 20 26 38 58 42 72
8 32 50 68 88 76 40 9 279 76 283 80 4 4 -12 57 -31 106 -6 14 -22 30 -36 36
-31 11 -56 55 -47 79 5 14 15 16 53 10 25 -3 54 -6 64 -6z m665 -117 c-13
-180 -14 -168 14 -172 14 -1 28 -8 32 -14 4 -6 10 -8 14 -4 4 3 2 13 -5 21 -9
11 -7 15 8 19 10 2 25 1 32 -4 25 -16 49 -10 49 11 0 14 7 20 23 20 31 0 44
-11 57 -44 8 -22 13 -26 24 -17 7 6 15 8 19 5 7 -8 -30 -44 -45 -44 -9 0 -8
-4 2 -11 23 -17 -97 -3 -150 17 -25 9 -65 20 -90 23 -42 6 -46 9 -81 71 -39
70 -41 89 -6 83 19 -4 27 5 54 66 45 101 57 94 49 -26z m-1923 46 c4 -16 10
-20 24 -14 29 13 294 22 336 12 20 -5 37 -15 37 -23 0 -7 6 -17 13 -21 23 -14
30 -60 9 -68 -30 -14 -312 -19 -312 -6 0 6 -7 11 -15 11 -8 0 -15 -4 -15 -10
0 -11 -71 -13 -106 -4 -18 5 -20 11 -17 62 3 31 6 63 8 70 7 20 32 14 38 -9z
m-1519 -15 c3 -8 2 -12 -4 -9 -6 3 -10 10 -10 16 0 14 7 11 14 -7z m3034 -10
c2 -17 -2 -20 -35 -20 -21 1 -50 -2 -65 -7 -16 -4 -28 -3 -28 2 0 5 17 13 38
18 21 6 36 15 34 22 -2 8 7 11 25 9 19 -2 29 -9 31 -24z m-2908 -14 c-6 -11
-13 -20 -15 -20 -3 0 -5 9 -5 20 0 11 7 20 15 20 13 0 14 -4 5 -20z m24 -41
c-6 -11 -24 -2 -24 11 0 5 7 7 15 4 8 -4 12 -10 9 -15z m1226 1 l25 -20 -32 0
c-17 0 -34 4 -37 8 -3 5 -19 7 -35 6 -33 -2 -43 12 -13 19 37 10 68 6 92 -13z
m2347 -17 c10 -16 21 -31 26 -34 14 -10 -12 -49 -31 -49 -36 0 -54 48 -36 94
9 23 21 20 41 -11z m-3536 -26 c-1 -12 -15 -9 -19 4 -3 6 1 10 8 8 6 -3 11 -8
11 -12z m1134 3 c-3 -5 -12 -10 -18 -10 -7 0 -6 4 3 10 19 12 23 12 15 0z
m-1077 -69 c2 -11 8 -21 13 -21 5 0 9 -18 9 -41 l0 -40 -35 67 c-19 37 -35 71
-35 77 0 18 45 -20 48 -42z m-148 24 c8 5 70 -170 70 -198 0 -8 6 -20 14 -26
16 -13 29 -54 15 -45 -25 15 -87 166 -92 224 -1 8 -8 21 -14 28 -7 7 -13 19
-12 25 0 8 2 8 6 -1 2 -6 8 -10 13 -7z m1135 -5 c-3 -5 -12 -10 -18 -10 -7 0
-6 4 3 10 19 12 23 12 15 0z m262 -26 c-3 -3 -12 -4 -19 -1 -8 3 -5 6 6 6 11
1 17 -2 13 -5z m408 -96 c-8 -114 -14 -160 -20 -166 -3 -3 -5 12 -5 33 0 32
-2 36 -15 25 -13 -11 -14 -10 -9 4 3 9 1 23 -6 31 -7 8 -10 16 -6 16 3 1 10 2
15 3 15 2 25 15 28 39 1 12 5 35 8 50 3 20 1 26 -8 21 -8 -5 -7 -2 2 9 7 9 15
17 18 17 2 0 2 -37 -2 -82z m-171 -24 c10 -25 7 -32 -11 -30 -13 1 -19 -8 -21
-31 -3 -26 0 -33 15 -33 15 0 15 -2 3 -9 -8 -6 -17 -8 -21 -5 -10 6 -22 101
-14 114 10 16 42 12 49 -6z m123 -6 c-3 -8 -6 -5 -6 6 -1 11 2 17 5 13 3 -3 4
-12 1 -19z m-1627 -174 c12 -19 20 -37 17 -40 -2 -3 -14 13 -26 36 -26 49 -20
52 9 4z m3710 21 c0 -8 -4 -15 -10 -15 -5 0 -10 7 -10 15 0 8 5 15 10 15 6 0
10 -7 10 -15z m-1125 -35 c-3 -5 -12 -10 -18 -10 -7 0 -6 4 3 10 19 12 23 12
15 0z m-2521 -112 c10 -26 29 -57 43 -68 14 -11 22 -20 17 -20 -5 0 -8 -19 -6
-42 3 -24 2 -41 -1 -38 -8 9 -97 221 -97 233 0 22 27 -18 44 -65z m3069 -122
c37 -7 70 -16 73 -19 11 -11 -58 -118 -81 -127 -13 -5 -39 -23 -60 -41 -37
-33 -37 -33 -54 -12 -9 11 -33 32 -53 48 -21 15 -38 32 -38 39 -1 12 -68 46
-92 46 -9 0 -18 7 -22 15 -3 9 0 15 8 15 8 0 16 5 18 11 3 9 93 24 223 37 6 1
40 -5 78 -12z m147 -38 c0 -14 -50 -68 -62 -68 -15 0 -8 27 13 54 21 27 49 35
49 14z m-1610 -28 c0 -5 -2 -10 -4 -10 -3 0 -8 5 -11 10 -3 6 -1 10 4 10 6 0
11 -4 11 -10z m-290 -164 c9 -41 0 -52 -30 -36 -25 13 -26 48 -3 66 22 15 23
14 33 -30z m-2419 -369 c-8 -8 -11 -7 -11 4 0 20 13 34 18 19 3 -7 -1 -17 -7
-23z m77 -108 l27 -21 -30 4 c-19 2 -31 9 -33 21 -4 22 4 22 36 -4z m-508 -3
c0 -3 -4 -8 -10 -11 -5 -3 -10 -1 -10 4 0 6 5 11 10 11 6 0 10 -2 10 -4z m80
-16 c-19 -12 -30 -12 -30 -1 0 10 31 20 40 14 2 -2 -2 -8 -10 -13z m504 -29
c10 -11 31 -23 47 -26 38 -9 47 -25 12 -23 -15 1 -34 10 -41 20 -7 10 -22 18
-33 18 -10 0 -19 7 -19 15 0 21 13 19 34 -4z m-424 -25 c0 -2 -7 -6 -15 -10
-8 -3 -15 -1 -15 4 0 6 7 10 15 10 8 0 15 -2 15 -4z"></path>
<path d="M3930 3553 c0 -5 12 -18 28 -29 44 -33 52 -36 52 -22 0 7 -15 22 -33
33 -44 27 -47 28 -47 18z"></path>
<path d="M4900 3539 c0 -15 18 -19 23 -6 3 8 -1 14 -9 14 -8 0 -14 -4 -14 -8z"></path>
<path d="M3490 3533 c0 -5 5 -15 10 -23 8 -12 10 -11 10 8 0 12 -4 22 -10 22
-5 0 -10 -3 -10 -7z"></path>
<path d="M4020 3482 c0 -12 19 -26 26 -19 2 2 -2 10 -11 17 -9 8 -15 8 -15 2z"></path>
<path d="M3375 3460 c-3 -5 -1 -10 4 -10 6 0 11 5 11 10 0 6 -2 10 -4 10 -3 0
-8 -4 -11 -10z"></path>
<path d="M3195 3390 c-19 -8 -19 -9 3 -9 12 -1 22 4 22 9 0 6 -1 10 -2 9 -2 0
-12 -4 -23 -9z"></path>
<path d="M4574 2878 c10 -6 22 -6 26 -2 5 5 -3 10 -18 11 -22 1 -24 0 -8 -9z"></path>
<path d="M4555 2752 c-31 -6 -40 -19 -25 -37 13 -16 16 -35 23 -153 2 -34 7
-65 10 -69 4 -3 17 1 30 10 15 10 29 12 38 6 18 -11 79 -12 79 -1 0 5 -10 8
-22 8 -20 -1 -23 4 -23 37 0 43 12 58 29 36 12 -16 48 -34 86 -45 14 -3 34
-16 45 -28 l20 -21 3 25 c2 14 7 30 11 35 5 6 11 18 15 29 5 14 2 17 -9 12
-13 -4 -14 -2 -5 14 8 15 6 20 -10 25 -11 3 -20 15 -20 26 0 10 -4 19 -10 19
-5 0 -10 7 -10 15 0 8 -6 16 -12 16 -30 3 -121 -1 -126 -5 -9 -10 -42 15 -42
30 0 11 -5 14 -16 10 -9 -4 -22 -3 -28 2 -6 5 -20 7 -31 4z m70 -62 c3 -5 -1
-10 -9 -10 -9 0 -16 5 -16 10 0 6 4 10 9 10 6 0 13 -4 16 -10z m103 -37 c-5
-52 -28 -56 -28 -4 0 30 4 41 15 41 11 0 15 -9 13 -37z m62 11 c0 -8 -7 -14
-15 -14 -15 0 -21 21 -9 33 10 9 24 -2 24 -19z m-112 -2 c3 -10 -53 -52 -70
-52 -19 0 -5 37 20 52 30 18 44 18 50 0z m-63 -102 c0 -7 -6 -15 -12 -17 -8
-3 -13 4 -13 17 0 13 5 20 13 18 6 -3 12 -11 12 -18z"></path>
<path d="M4480 2666 c0 -7 -7 -19 -15 -26 -21 -17 -19 -47 4 -55 28 -9 53 5
45 24 -4 9 -8 26 -8 38 -1 24 -26 42 -26 19z"></path>
<path d="M4778 2483 c7 -3 16 -2 19 1 4 3 -2 6 -13 5 -11 0 -14 -3 -6 -6z"></path>
<path d="M4730 2416 c0 -14 -4 -36 -10 -50 -8 -23 -7 -26 10 -26 13 0 20 7 20
19 0 25 20 38 31 20 10 -17 23 -5 16 15 -4 9 -13 13 -22 10 -11 -5 -18 0 -22
15 -7 29 -23 27 -23 -3z"></path>
<path d="M4846 2432 c-2 -4 -1 -14 5 -22 7 -12 9 -10 9 8 0 23 -5 28 -14 14z"></path>
<path d="M4650 2410 c0 -16 -7 -20 -31 -20 -28 0 -29 -1 -14 -17 16 -16 16
-17 1 -29 -10 -7 -13 -15 -8 -18 4 -2 15 4 22 15 8 10 22 19 32 19 19 0 23 5
32 43 5 23 3 27 -14 27 -13 0 -20 -7 -20 -20z"></path>
<path d="M4587 2293 c-13 -12 -7 -21 18 -25 28 -6 36 16 9 26 -19 7 -19 7 -27
-1z"></path>
<path d="M4590 2189 c0 -11 5 -17 10 -14 6 3 10 2 10 -4 0 -5 -6 -13 -12 -17
-22 -14 33 -21 87 -12 28 5 60 6 73 3 12 -3 22 -1 22 5 0 5 -11 10 -24 10 -14
0 -27 4 -30 9 -3 5 -22 5 -42 1 -31 -7 -38 -5 -57 16 -25 29 -37 31 -37 3z"></path>
<path d="M4670 1990 c0 -5 9 -10 20 -10 11 0 20 5 20 10 0 6 -9 10 -20 10 -11
0 -20 -4 -20 -10z"></path>
<path d="M4027 1844 c-4 -4 -24 -7 -44 -7 -39 0 -53 -10 -53 -37 0 -13 13 -16
63 -15 62 0 62 0 62 29 0 29 -14 43 -28 30z"></path>
<path d="M3786 1833 c-3 -3 -6 -15 -6 -25 0 -19 34 -26 44 -9 3 5 15 7 26 4
14 -4 20 0 20 12 0 11 -5 15 -15 11 -8 -3 -15 -2 -15 2 0 10 -45 14 -54 5z"></path>
<path d="M4380 1425 c0 -3 15 -14 33 -25 20 -13 26 -20 15 -20 -9 0 -19 4 -22
9 -7 10 -104 26 -112 18 -13 -13 64 -52 111 -56 6 -1 3 -5 -5 -11 -26 -16 16
-50 62 -50 44 0 82 16 73 31 -4 5 -4 17 -1 27 5 14 15 17 48 15 24 -1 32 1 18
4 -14 2 -32 10 -40 17 -32 25 -93 46 -135 46 -25 0 -45 -2 -45 -5z m116 -101
c0 -1 -19 2 -41 6 -39 7 -39 8 -7 9 18 0 32 6 33 14 0 6 4 3 8 -8 5 -11 8 -21
7 -21z"></path>
<path d="M4047 1323 c-11 -10 -8 -35 4 -31 6 2 10 7 9 12 -1 5 4 13 12 17 10
7 10 9 -3 9 -9 0 -19 -3 -22 -7z"></path>
<path d="M4580 1313 c19 -3 39 -9 45 -14 17 -17 85 -8 85 12 0 5 -37 8 -82 7
-46 0 -67 -3 -48 -5z"></path>
<path d="M3440 1115 c0 -8 4 -15 10 -15 5 0 7 7 4 15 -4 8 -8 15 -10 15 -2 0
-4 -7 -4 -15z"></path>
<path d="M3370 1112 c0 -7 5 -12 10 -12 18 0 11 -20 -7 -21 -15 0 -15 -2 2 -9
27 -12 43 -12 25 0 -12 8 -12 10 3 16 9 3 17 11 17 16 0 6 -6 8 -14 5 -7 -3
-19 0 -25 6 -8 8 -11 8 -11 -1z"></path>
<path d="M3430 1079 c0 -11 21 -11 39 0 9 6 5 9 -13 9 -14 0 -26 -4 -26 -9z"></path>
<path d="M4044 1058 c-4 -6 -2 -14 4 -16 7 -2 10 -8 6 -13 -12 -20 14 -7 37
18 13 15 17 22 7 15 -11 -9 -18 -10 -23 -2 -8 13 -22 13 -31 -2z"></path>
<path d="M5005 1320 c7 -11 65 -18 65 -8 0 4 -8 8 -17 9 -10 0 -26 2 -36 4 -9
2 -15 0 -12 -5z"></path>
<path d="M6680 4661 c0 -24 21 -61 35 -61 11 0 15 10 15 35 0 31 -3 35 -25 35
-14 0 -25 -4 -25 -9z"></path>
<path d="M6816 4623 c4 -27 11 -51 16 -54 5 -3 3 -11 -4 -17 -9 -7 -12 -28 -9
-62 3 -46 5 -51 25 -48 19 3 21 10 23 83 4 118 -2 145 -33 145 -24 0 -25 -2
-18 -47z"></path>
<path d="M6890 4635 c0 -21 5 -35 12 -35 9 0 9 -3 0 -12 -7 -7 -12 -36 -12
-65 0 -44 3 -53 18 -53 16 -1 16 -1 0 -14 -14 -10 -16 -23 -11 -65 5 -46 8
-52 27 -49 18 3 21 11 24 66 2 42 -1 62 -9 62 -8 0 -8 4 -2 13 5 6 8 37 7 67
-2 30 -3 70 -4 88 0 27 -4 32 -25 32 -22 0 -25 -4 -25 -35z"></path>
<path d="M6960 4656 c0 -8 6 -17 13 -19 9 -4 9 -7 -1 -15 -16 -11 -5 -122 12
-122 6 0 4 -4 -3 -9 -17 -11 -16 -108 1 -128 7 -9 7 -13 -2 -13 -8 0 -10 -13
-6 -42 3 -24 5 -51 5 -60 1 -10 6 -18 11 -18 6 0 10 80 10 220 0 213 -1 220
-20 220 -11 0 -20 -6 -20 -14z"></path>
<path d="M1481 4624 c13 -16 39 -19 39 -4 0 6 -3 10 -7 11 -5 0 -16 2 -26 4
-15 3 -16 1 -6 -11z"></path>
<path d="M4295 4630 c-3 -5 1 -10 10 -10 9 0 13 5 10 10 -3 6 -8 10 -10 10 -2
0 -7 -4 -10 -10z"></path>
<path d="M1687 4616 c-3 -8 -2 -18 4 -22 16 -9 22 2 11 21 -8 15 -10 16 -15 1z"></path>
<path d="M1730 4613 c0 -13 5 -23 10 -23 13 0 13 11 0 30 -8 12 -10 11 -10 -7z"></path>
<path d="M4330 4615 c0 -8 -7 -15 -15 -15 -8 0 -15 -4 -15 -10 0 -5 11 -10 25
-10 20 0 25 5 25 25 0 14 -4 25 -10 25 -5 0 -10 -7 -10 -15z"></path>
<path d="M5970 4615 c0 -8 5 -15 10 -15 6 0 10 7 10 15 0 8 -4 15 -10 15 -5 0
-10 -7 -10 -15z"></path>
<path d="M1821 4604 c0 -11 3 -14 6 -6 3 7 2 16 -1 19 -3 4 -6 -2 -5 -13z"></path>
<path d="M1860 4605 c0 -8 5 -15 10 -15 6 0 10 7 10 15 0 8 -4 15 -10 15 -5 0
-10 -7 -10 -15z"></path>
<path d="M1910 4605 c0 -8 4 -15 10 -15 5 0 7 7 4 15 -4 8 -8 15 -10 15 -2 0
-4 -7 -4 -15z"></path>
<path d="M1775 4600 c-3 -5 -1 -10 4 -10 6 0 11 5 11 10 0 6 -2 10 -4 10 -3 0
-8 -4 -11 -10z"></path>
<path d="M5294 4474 c2 -58 7 -108 10 -111 3 -4 6 44 6 105 0 69 -4 112 -10
112 -6 0 -9 -39 -6 -106z"></path>
<path d="M5252 4522 c-1 -20 2 -50 7 -67 8 -26 9 -21 10 32 1 66 -14 96 -17
35z"></path>
<path d="M6697 4543 c-14 -13 -7 -71 9 -77 28 -11 34 -7 34 23 0 51 -21 77
-43 54z"></path>
<path d="M1561 4514 c0 -11 3 -14 6 -6 3 7 2 16 -1 19 -3 4 -6 -2 -5 -13z"></path>
<path d="M1645 4517 c-4 -10 -5 -21 -1 -24 10 -10 18 4 13 24 -4 17 -4 17 -12
0z"></path>
<path d="M1690 4511 c0 -25 6 -27 13 -6 4 8 2 17 -3 20 -6 4 -10 -3 -10 -14z"></path>
<path d="M1730 4510 c0 -11 5 -20 10 -20 6 0 10 9 10 20 0 11 -4 20 -10 20 -5
0 -10 -9 -10 -20z"></path>
<path d="M1775 4517 c-4 -10 -5 -21 -1 -24 10 -10 18 4 13 24 -4 17 -4 17 -12
0z"></path>
<path d="M1907 4524 c-8 -8 3 -34 14 -34 5 0 9 9 9 20 0 19 -11 26 -23 14z"></path>
<path d="M5030 4521 c0 -5 5 -13 10 -16 6 -3 10 -2 10 4 0 5 -4 13 -10 16 -5
3 -10 2 -10 -4z"></path>
<path d="M5530 4520 c0 -5 5 -10 10 -10 6 0 10 5 10 10 0 6 -4 10 -10 10 -5 0
-10 -4 -10 -10z"></path>
<path d="M1820 4505 c0 -8 4 -15 10 -15 5 0 7 7 4 15 -4 8 -8 15 -10 15 -2 0
-4 -7 -4 -15z"></path>
<path d="M1860 4505 c0 -8 5 -15 10 -15 6 0 10 7 10 15 0 8 -4 15 -10 15 -5 0
-10 -7 -10 -15z"></path>
<path d="M5116 4513 c-12 -12 -6 -33 9 -33 8 0 15 6 15 14 0 17 -14 28 -24 19z"></path>
<path d="M3700 4476 c0 -31 6 -34 13 -6 3 11 1 23 -4 26 -5 3 -9 -6 -9 -20z"></path>
<path d="M5030 4475 c0 -8 0 -18 -1 -22 0 -4 4 -9 10 -11 6 -2 11 8 11 22 0
14 -4 26 -10 26 -5 0 -10 -7 -10 -15z"></path>
<path d="M1530 4420 c1 -21 2 -22 10 -8 9 15 13 15 36 3 27 -14 45 -11 77 11
16 10 9 13 -52 16 -70 3 -71 3 -71 -22z"></path>
<path d="M5530 4443 c0 -5 5 -15 10 -23 8 -12 10 -11 10 8 0 12 -4 22 -10 22
-5 0 -10 -3 -10 -7z"></path>
<path d="M1688 4433 c7 -3 16 -2 19 1 4 3 -2 6 -13 5 -11 0 -14 -3 -6 -6z"></path>
<path d="M1815 4430 c3 -5 11 -10 16 -10 6 0 7 5 4 10 -3 6 -11 10 -16 10 -6
0 -7 -4 -4 -10z"></path>
<path d="M6832 4417 c-9 -11 -10 -47 -3 -99 1 -5 10 -8 21 -8 18 0 20 7 20 60
0 61 -13 77 -38 47z"></path>
<path d="M6690 4370 c0 -48 1 -50 28 -50 26 0 27 1 24 50 -4 45 -6 50 -28 50
-22 0 -24 -4 -24 -50z"></path>
<path d="M5410 4398 c0 -7 5 -20 10 -28 8 -12 10 -11 10 7 0 12 -4 25 -10 28
-5 3 -10 0 -10 -7z"></path>
<path d="M5036 4385 c-3 -8 -1 -15 4 -15 6 0 10 7 10 15 0 8 -2 15 -4 15 -2 0
-6 -7 -10 -15z"></path>
<path d="M5537 4387 c-3 -8 -1 -20 4 -28 6 -10 9 -7 9 14 0 29 -5 35 -13 14z"></path>
<path d="M5980 4370 c0 -5 7 -10 15 -10 8 0 15 5 15 10 0 6 -7 10 -15 10 -8 0
-15 -4 -15 -10z"></path>
<path d="M3978 4343 c6 -2 18 -2 25 0 6 3 1 5 -13 5 -14 0 -19 -2 -12 -5z"></path>
<path d="M4043 4343 c9 -2 23 -2 30 0 6 3 -1 5 -18 5 -16 0 -22 -2 -12 -5z"></path>
<path d="M4118 4343 c7 -3 16 -2 19 1 4 3 -2 6 -13 5 -11 0 -14 -3 -6 -6z"></path>
<path d="M4158 4343 c6 -2 18 -2 25 0 6 3 1 5 -13 5 -14 0 -19 -2 -12 -5z"></path>
<path d="M4200 4346 c0 -8 51 -13 56 -5 3 5 -9 9 -25 9 -17 0 -31 -2 -31 -4z"></path>
<path d="M4303 4333 c9 -2 25 -2 35 0 9 3 1 5 -18 5 -19 0 -27 -2 -17 -5z"></path>
<path d="M4361 4336 c9 -8 139 -13 139 -5 0 5 -32 9 -72 9 -39 0 -69 -2 -67
-4z"></path>
<path d="M4883 4318 c-2 -5 2 -9 9 -10 154 -18 243 -15 206 8 -15 10 -209 11
-215 2z"></path>
<path d="M5165 4320 c-8 -13 -1 -24 14 -19 6 3 7 10 2 18 -6 10 -10 10 -16 1z"></path>
<path d="M5258 4303 c-2 -17 -9 -28 -18 -28 -8 0 -18 -4 -22 -10 -5 -6 -8 -4
-8 5 0 13 -1 13 -10 0 -7 -11 -10 -11 -10 -2 0 9 -5 10 -18 3 -10 -5 -39 -9
-65 -8 -25 0 -49 -2 -52 -5 -3 -3 36 -6 86 -7 51 -1 96 -4 99 -6 7 -4 99 -12
245 -20 44 -3 97 -9 118 -14 29 -7 37 -6 37 4 0 18 -17 28 -22 14 -3 -9 -12
-9 -33 -2 -26 8 -30 15 -33 51 -2 23 -8 42 -14 42 -6 0 -8 -12 -5 -29 9 -42
-6 -49 -85 -42 -14 1 -18 10 -18 43 0 23 -3 38 -7 34 -4 -4 -7 -21 -8 -38 0
-30 0 -31 -52 -30 -98 1 -108 2 -97 10 6 4 10 17 9 29 -3 35 -13 38 -17 6z"></path>
<path d="M4838 4313 c6 -2 18 -2 25 0 6 3 1 5 -13 5 -14 0 -19 -2 -12 -5z"></path>
<path d="M5120 4304 c0 -17 22 -14 28 4 2 7 -3 12 -12 12 -9 0 -16 -7 -16 -16z"></path>
<path d="M5376 4305 c4 -8 8 -15 10 -15 2 0 4 7 4 15 0 8 -4 15 -10 15 -5 0
-7 -7 -4 -15z"></path>
<path d="M5491 4304 c0 -11 3 -14 6 -6 3 7 2 16 -1 19 -3 4 -6 -2 -5 -13z"></path>
<path d="M5300 4290 c0 -11 5 -20 10 -20 6 0 10 9 10 20 0 11 -4 20 -10 20 -5
0 -10 -9 -10 -20z"></path>
<path d="M5980 4290 c-14 -11 -19 -20 -12 -20 6 0 12 -11 12 -25 0 -23 2 -24
20 -15 14 8 20 21 20 45 0 40 -5 42 -40 15z"></path>
<path d="M6841 4291 c-11 -7 -14 -25 -12 -63 1 -29 4 -55 6 -56 2 -2 12 1 22
6 14 8 18 23 18 66 0 55 -7 64 -34 47z"></path>
<path d="M6724 4235 c-1 -29 4 -46 13 -50 12 -4 14 5 11 42 -4 60 -23 67 -24
8z"></path>
<path d="M4362 4225 c-11 -25 -4 -39 13 -27 11 8 15 52 5 52 -4 0 -12 -11 -18
-25z"></path>
<path d="M3560 4230 c0 -5 18 -10 40 -10 22 0 40 5 40 10 0 6 -18 10 -40 10
-22 0 -40 -4 -40 -10z"></path>
<path d="M4155 4230 c-3 -5 -1 -10 4 -10 6 0 11 5 11 10 0 6 -2 10 -4 10 -3 0
-8 -4 -11 -10z"></path>
<path d="M4058 4223 c7 -3 16 -2 19 1 4 3 -2 6 -13 5 -11 0 -14 -3 -6 -6z"></path>
<path d="M4226 4211 c-3 -5 1 -11 9 -15 8 -3 15 -10 15 -16 0 -16 -31 -12 -51
6 -17 16 -22 15 -74 -7 -54 -24 -70 -39 -39 -39 9 0 36 -13 60 -30 40 -26 44
-27 53 -12 6 10 11 12 11 4 0 -23 56 -72 82 -72 34 0 38 7 22 38 -8 16 -25 29
-41 32 -34 6 -33 24 2 28 30 4 30 4 9 45 -22 43 -46 58 -58 38z"></path>
<path d="M6984 4212 c-12 -8 -6 -102 7 -102 5 0 9 25 9 55 0 30 -1 55 -2 55
-2 0 -8 -4 -14 -8z"></path>
<path d="M1390 4200 c0 -5 9 -10 20 -10 11 0 20 5 20 10 0 6 -9 10 -20 10 -11
0 -20 -4 -20 -10z"></path>
<path d="M1450 4201 c0 -5 7 -12 16 -15 22 -9 24 -8 24 9 0 8 -9 15 -20 15
-11 0 -20 -4 -20 -9z"></path>
<path d="M1510 4200 c0 -5 9 -10 20 -10 11 0 20 5 20 10 0 6 -9 10 -20 10 -11
0 -20 -4 -20 -10z"></path>
<path d="M1570 4195 c0 -8 9 -15 20 -15 11 0 20 7 20 15 0 8 -9 15 -20 15 -11
0 -20 -7 -20 -15z"></path>
<path d="M1626 4195 c-4 -11 1 -15 19 -15 16 0 25 6 25 15 0 8 -9 15 -19 15
-10 0 -21 -7 -25 -15z"></path>
<path d="M1686 4195 c-4 -12 -1 -16 14 -13 24 3 28 22 7 26 -8 2 -17 -4 -21
-13z"></path>
<path d="M1746 4195 c-3 -10 1 -15 13 -15 10 0 21 7 25 15 3 10 -1 15 -13 15
-10 0 -21 -7 -25 -15z"></path>
<path d="M1796 4195 c-4 -11 2 -15 23 -15 18 0 28 5 28 15 0 9 -9 15 -23 15
-12 0 -24 -7 -28 -15z"></path>
<path d="M1860 4195 c0 -12 16 -15 80 -15 61 0 80 3 80 14 0 10 -14 14 -50 14
-29 0 -50 -5 -50 -11 0 -7 -4 -7 -12 1 -17 17 -48 15 -48 -3z"></path>
<path d="M2036 4195 c-4 -11 3 -15 29 -16 19 -1 42 -2 50 -3 8 0 15 2 15 7 0
4 0 12 0 17 0 14 -37 12 -43 -2 -4 -10 -6 -10 -6 0 -1 17 -38 15 -45 -3z"></path>
<path d="M2156 4195 c-4 -10 1 -15 14 -15 11 0 20 7 20 15 0 8 -6 15 -14 15
-8 0 -16 -7 -20 -15z"></path>
<path d="M2217 4204 c-13 -14 -7 -32 11 -30 9 2 17 9 17 16 0 15 -18 24 -28
14z"></path>
<path d="M2276 4203 c-13 -14 -5 -33 14 -33 11 0 20 6 20 14 0 15 -24 28 -34
19z"></path>
<path d="M2335 4200 c-4 -6 -3 -16 3 -22 6 -6 12 -6 17 2 4 6 3 16 -3 22 -6 6
-12 6 -17 -2z"></path>
<path d="M4945 4196 c-30 -13 -30 -13 20 -12 28 0 70 -4 95 -9 41 -8 43 -7 29
8 -22 22 -106 29 -144 13z"></path>
<path d="M2387 4193 c-13 -13 -7 -21 13 -16 11 3 20 9 20 14 0 10 -24 12 -33
2z"></path>
<path d="M2445 4190 c-3 -5 3 -10 14 -10 12 0 21 5 21 10 0 6 -6 10 -14 10 -8
0 -18 -4 -21 -10z"></path>
<path d="M2507 4193 c-11 -11 -8 -20 8 -20 8 0 15 6 15 14 0 14 -12 17 -23 6z"></path>
<path d="M2560 4190 c0 -5 7 -10 15 -10 8 0 15 5 15 10 0 6 -7 10 -15 10 -8 0
-15 -4 -15 -10z"></path>
<path d="M2620 4184 c0 -9 5 -14 12 -12 18 6 21 28 4 28 -9 0 -16 -7 -16 -16z"></path>
<path d="M2680 4185 c0 -8 4 -15 9 -15 5 0 11 7 15 15 3 9 0 15 -9 15 -8 0
-15 -7 -15 -15z"></path>
<path d="M2795 4180 c3 -5 8 -10 11 -10 2 0 4 5 4 10 0 6 -5 10 -11 10 -5 0
-7 -4 -4 -10z"></path>
<path d="M2850 4179 c0 -5 5 -7 10 -4 6 3 10 8 10 11 0 2 -4 4 -10 4 -5 0 -10
-5 -10 -11z"></path>
<path d="M2910 4180 c0 -5 5 -10 10 -10 6 0 10 5 10 10 0 6 -4 10 -10 10 -5 0
-10 -4 -10 -10z"></path>
<path d="M2965 4180 c-3 -5 1 -10 10 -10 9 0 13 5 10 10 -3 6 -8 10 -10 10 -2
0 -7 -4 -10 -10z"></path>
<path d="M3020 4180 c0 -5 5 -10 10 -10 6 0 10 5 10 10 0 6 -4 10 -10 10 -5 0
-10 -4 -10 -10z"></path>
<path d="M3076 4181 c-3 -5 1 -11 9 -15 9 -3 15 0 15 9 0 16 -16 20 -24 6z"></path>
<path d="M3130 4174 c0 -9 5 -14 12 -12 18 6 21 28 4 28 -9 0 -16 -7 -16 -16z"></path>
<path d="M5185 4180 c-3 -5 -1 -10 4 -10 6 0 11 5 11 10 0 6 -2 10 -4 10 -3 0
-8 -4 -11 -10z"></path>
<path d="M3410 4170 c0 -5 5 -10 10 -10 6 0 10 5 10 10 0 6 -4 10 -10 10 -5 0
-10 -4 -10 -10z"></path>
<path d="M5278 4173 c7 -3 16 -2 19 1 4 3 -2 6 -13 5 -11 0 -14 -3 -6 -6z"></path>
<path d="M3740 4160 c0 -5 5 -10 10 -10 6 0 10 5 10 10 0 6 -4 10 -10 10 -5 0
-10 -4 -10 -10z"></path>
<path d="M3800 4160 c0 -5 5 -10 10 -10 6 0 10 5 10 10 0 6 -4 10 -10 10 -5 0
-10 -4 -10 -10z"></path>
<path d="M3850 4160 c0 -5 5 -10 10 -10 6 0 10 5 10 10 0 6 -4 10 -10 10 -5 0
-10 -4 -10 -10z"></path>
<path d="M4330 4155 c-11 -13 -9 -20 13 -43 15 -16 27 -39 27 -52 0 -19 3 -21
12 -12 18 18 27 15 57 -17 19 -20 32 -27 41 -21 12 7 10 14 -9 34 -24 25 -30
58 -17 89 5 10 4 17 -3 17 -6 0 -11 -10 -11 -22 -1 -23 -1 -23 -23 4 -28 34
-69 45 -87 23z"></path>
<path d="M4550 4141 c0 -6 5 -13 10 -16 6 -3 10 1 10 9 0 9 -4 16 -10 16 -5 0
-10 -4 -10 -9z"></path>
<path d="M4600 4140 c0 -5 5 -10 10 -10 6 0 10 5 10 10 0 6 -4 10 -10 10 -5 0
-10 -4 -10 -10z"></path>
<path d="M4700 4135 c0 -8 5 -15 10 -15 6 0 10 7 10 15 0 8 -4 15 -10 15 -5 0
-10 -7 -10 -15z"></path>
<path d="M4756 4143 c-11 -11 -6 -23 9 -23 8 0 15 4 15 9 0 13 -16 22 -24 14z"></path>
<path d="M4650 4129 c0 -5 5 -7 10 -4 6 3 10 8 10 11 0 2 -4 4 -10 4 -5 0 -10
-5 -10 -11z"></path>
<path d="M4806 4125 c4 -8 10 -12 15 -9 14 8 10 24 -6 24 -9 0 -12 -6 -9 -15z"></path>
<path d="M4860 4125 c0 -8 5 -15 10 -15 6 0 10 7 10 15 0 8 -4 15 -10 15 -5 0
-10 -7 -10 -15z"></path>
<path d="M4903 4125 c0 -8 8 -15 18 -15 12 0 16 5 13 15 -4 8 -12 15 -18 15
-7 0 -13 -7 -13 -15z"></path>
<path d="M4953 4125 c0 -8 9 -15 20 -15 10 0 17 5 15 13 -7 18 -35 20 -35 2z"></path>
<path d="M5006 4125 c-4 -10 1 -15 14 -15 13 0 18 5 14 15 -4 8 -10 15 -14 15
-4 0 -10 -7 -14 -15z"></path>
<path d="M4066 4105 c-20 -21 -20 -49 0 -70 15 -15 18 -15 36 2 12 11 18 27
16 47 -3 36 -27 45 -52 21z"></path>
<path d="M4170 4054 c0 -8 5 -12 10 -9 6 3 10 10 10 16 0 5 -4 9 -10 9 -5 0
-10 -7 -10 -16z"></path>
<path d="M1415 4030 c-3 -5 -1 -10 4 -10 6 0 11 5 11 10 0 6 -2 10 -4 10 -3 0
-8 -4 -11 -10z"></path>
<path d="M4140 3975 c0 -60 49 -75 75 -24 23 44 14 60 -35 57 -38 -2 -40 -4
-40 -33z"></path>
<path d="M4332 3978 c-19 -19 -14 -32 18 -50 30 -17 31 -17 42 7 19 41 -28 75
-60 43z"></path>
<path d="M4095 3932 c-6 -4 -15 -17 -22 -29 -10 -17 -9 -24 1 -32 19 -16 46
-3 46 23 0 28 -13 47 -25 38z"></path>
<path d="M1495 3920 c3 -5 13 -10 20 -10 8 0 17 -10 20 -22 4 -13 17 -31 30
-40 23 -17 23 -17 23 18 0 28 -5 37 -29 49 -32 17 -73 20 -64 5z"></path>
<path d="M2512 3908 c-43 -11 -41 -25 3 -20 22 3 35 0 35 -7 0 -7 9 -9 24 -5
19 4 28 -1 45 -25 25 -35 42 -41 34 -12 -7 27 -53 68 -83 73 -14 2 -40 0 -58
-4z"></path>
<path d="M3012 3895 c-29 -13 -32 -18 -26 -42 9 -37 13 -43 29 -43 7 0 15 -7
19 -15 6 -17 26 -20 26 -4 0 5 -4 8 -9 5 -10 -7 -23 19 -14 28 4 3 17 6 30 6
27 0 27 2 11 47 -13 37 -19 38 -66 18z"></path>
<path d="M3515 3888 c-38 -22 -57 -45 -45 -53 7 -4 16 -2 20 5 6 9 13 5 25
-13 9 -14 14 -30 11 -35 -10 -17 52 -43 86 -37 31 6 33 9 35 50 2 38 -2 48
-28 70 -33 27 -71 32 -104 13z"></path>
<path d="M4007 3884 c-8 -8 1 -24 14 -24 5 0 9 7 9 15 0 15 -12 20 -23 9z"></path>
<path d="M4495 3872 c-46 -16 -87 -65 -68 -82 12 -12 187 -39 196 -30 11 10
-15 70 -39 92 -23 20 -62 29 -89 20z"></path>
<path d="M4920 3842 c-28 -28 -47 -88 -37 -115 5 -13 171 -42 186 -32 14 8 19
56 10 91 -5 18 -23 44 -40 58 -41 35 -83 34 -119 -2z"></path>
<path d="M1975 3850 c3 -5 8 -10 11 -10 2 0 4 5 4 10 0 6 -5 10 -11 10 -5 0
-7 -4 -4 -10z"></path>
<path d="M5540 3829 c0 -5 5 -7 10 -4 6 3 10 8 10 11 0 2 -4 4 -10 4 -5 0 -10
-5 -10 -11z"></path>
<path d="M5750 3815 c0 -8 7 -15 15 -15 8 0 15 4 15 9 0 5 -7 11 -15 15 -9 3
-15 0 -15 -9z"></path>
<path d="M3095 3810 c3 -5 8 -10 11 -10 2 0 4 5 4 10 0 6 -5 10 -11 10 -5 0
-7 -4 -4 -10z"></path>
<path d="M4113 3813 c9 -2 25 -2 35 0 9 3 1 5 -18 5 -19 0 -27 -2 -17 -5z"></path>
<path d="M3888 3803 c6 -2 18 -2 25 0 6 3 1 5 -13 5 -14 0 -19 -2 -12 -5z"></path>
<path d="M1997 3794 c-6 -10 9 -42 16 -34 3 3 1 14 -3 24 -3 11 -9 15 -13 10z"></path>
<path d="M1630 3776 c0 -2 7 -7 16 -10 8 -3 12 -2 9 4 -6 10 -25 14 -25 6z"></path>
<path d="M2030 3776 c0 -10 61 -37 73 -32 7 2 5 5 -5 5 -9 1 -18 5 -20 10 -3
9 -48 25 -48 17z"></path>
<path d="M3510 3752 c0 -15 11 -21 27 -15 12 5 12 7 1 14 -17 11 -28 11 -28 1z"></path>
<path d="M1670 3726 c-6 -8 -18 -12 -25 -10 -10 4 -12 0 -8 -16 5 -19 7 -19
23 -5 9 8 19 13 21 10 3 -2 10 5 17 15 10 16 10 20 -2 20 -7 0 -19 -6 -26 -14z"></path>
<path d="M3160 3729 c0 -5 5 -7 10 -4 6 3 10 8 10 11 0 2 -4 4 -10 4 -5 0 -10
-5 -10 -11z"></path>
<path d="M1753 3719 c9 -5 17 -19 17 -29 0 -28 17 -33 23 -8 8 27 -9 48 -37
48 -19 -1 -19 -2 -3 -11z"></path>
<path d="M2975 3701 c-11 -10 -4 -21 15 -21 11 0 20 -7 20 -15 0 -32 67 -44
138 -23 36 11 38 32 4 34 -12 1 -29 7 -38 15 -15 12 -129 21 -139 10z"></path>
<path d="M5296 3701 c-4 -7 -5 -15 -2 -18 9 -9 19 4 14 18 -4 11 -6 11 -12 0z"></path>
<path d="M5230 3666 c0 -9 5 -16 10 -16 6 0 10 4 10 9 0 6 -4 13 -10 16 -5 3
-10 -1 -10 -9z"></path>
<path d="M1225 3659 c-4 -6 -5 -13 -2 -16 7 -7 27 6 27 18 0 12 -17 12 -25 -2z"></path>
<path d="M1997 3640 c-15 -18 -15 -20 3 -30 15 -8 20 -6 25 11 10 30 -8 42
-28 19z"></path>
<path d="M1620 3630 c0 -5 5 -10 11 -10 5 0 7 5 4 10 -3 6 -8 10 -11 10 -2 0
-4 -4 -4 -10z"></path>
<path d="M1950 3610 c0 -5 -7 -10 -16 -10 -9 0 -14 -6 -11 -12 6 -21 29 -15
38 10 5 13 5 22 -1 22 -6 0 -10 -4 -10 -10z"></path>
<path d="M842 3598 c-16 -16 -16 -41 0 -32 8 5 9 2 5 -10 -5 -12 -3 -16 5 -14
13 5 19 56 8 63 -4 2 -12 -1 -18 -7z"></path>
<path d="M1775 3590 c3 -5 11 -10 16 -10 6 0 7 5 4 10 -3 6 -11 10 -16 10 -6
0 -7 -4 -4 -10z"></path>
<path d="M450 3566 c0 -14 27 -42 34 -35 2 2 0 14 -5 27 -9 24 -29 30 -29 8z"></path>
<path d="M1708 3573 c7 -3 16 -2 19 1 4 3 -2 6 -13 5 -11 0 -14 -3 -6 -6z"></path>
<path d="M1170 3544 c0 -28 15 -25 23 6 3 13 0 20 -9 20 -8 0 -14 -10 -14 -26z"></path>
<path d="M983 3530 c2 -11 9 -26 15 -32 14 -14 16 -48 2 -48 -5 0 -14 9 -20
20 -6 11 -16 20 -23 19 -20 -3 -47 12 -47 28 0 8 -5 11 -10 8 -6 -4 -8 -11 -5
-16 3 -5 0 -6 -8 -3 -18 7 -30 -10 -34 -50 -2 -17 -10 -34 -18 -39 -8 -4 -15
-13 -15 -18 0 -6 4 -8 9 -5 5 4 11 1 13 -5 3 -9 12 -9 32 -3 21 7 30 17 32 38
6 55 23 48 31 -13 l6 -41 28 20 c15 12 31 30 34 41 5 14 12 18 26 14 11 -4 19
-2 19 4 0 6 -5 11 -11 11 -7 0 -9 9 -6 21 4 15 2 19 -9 15 -8 -3 -14 -1 -14 4
0 6 6 10 14 10 7 0 19 7 26 15 8 9 8 15 2 15 -6 0 -12 -4 -14 -10 -1 -5 -13
-7 -25 -4 -13 4 -20 10 -17 15 3 5 0 9 -5 9 -6 0 -9 -9 -8 -20z"></path>
<path d="M1750 3542 c0 -14 11 -21 26 -15 8 3 11 9 8 14 -7 11 -34 12 -34 1z"></path>
<path d="M510 3528 c0 -11 -8 -18 -19 -18 -49 0 -73 -34 -26 -36 16 -1 25 3
25 13 0 10 7 14 20 10 22 -6 26 8 10 33 -8 13 -10 12 -10 -2z"></path>
<path d="M2025 3520 c3 -5 8 -10 11 -10 2 0 4 5 4 10 0 6 -5 10 -11 10 -5 0
-7 -4 -4 -10z"></path>
<path d="M416 3511 c-4 -7 -5 -15 -2 -18 9 -9 19 4 14 18 -4 11 -6 11 -12 0z"></path>
<path d="M6870 3485 c-11 -13 -8 -15 21 -15 43 0 69 14 44 24 -27 10 -52 7
-65 -9z"></path>
<path d="M1245 3470 c-3 -5 1 -10 10 -10 9 0 13 5 10 10 -3 6 -8 10 -10 10 -2
0 -7 -4 -10 -10z"></path>
<path d="M2420 3410 c0 -14 -6 -20 -16 -18 -10 2 -19 -3 -22 -11 -3 -8 0 -11
6 -7 6 3 12 1 14 -5 3 -8 11 -8 28 2 14 8 27 15 28 16 2 1 1 11 -3 22 -8 27
-35 27 -35 1z"></path>
<path d="M1010 3407 c-8 -7 -16 -20 -16 -29 -1 -13 2 -15 16 -6 20 13 50 5 50
-13 0 -6 -6 -9 -14 -6 -13 5 -26 -12 -26 -34 0 -20 31 -8 40 16 10 28 21 30
52 14 11 -6 21 -9 23 -7 7 7 -7 48 -15 43 -4 -2 -15 4 -25 15 -20 22 -51 28
-39 8 6 -10 4 -10 -7 0 -16 15 -20 15 -39 -1z"></path>
<path d="M2448 3363 c7 -3 16 -2 19 1 4 3 -2 6 -13 5 -11 0 -14 -3 -6 -6z"></path>
<path d="M2310 3350 c0 -5 9 -10 19 -10 11 0 23 5 26 10 4 6 -5 10 -19 10 -14
0 -26 -4 -26 -10z"></path>
<path d="M2294 3304 c3 -9 6 -18 6 -20 0 -2 4 -4 9 -4 5 0 7 9 4 20 -3 11 -10
20 -15 20 -6 0 -7 -7 -4 -16z"></path>
<path d="M6125 3300 c3 -5 11 -10 16 -10 6 0 7 5 4 10 -3 6 -11 10 -16 10 -6
0 -7 -4 -4 -10z"></path>
<path d="M2114 3205 c1 -28 8 -31 26 -10 13 16 6 35 -15 35 -7 0 -12 -10 -11
-25z"></path>
<path d="M3967 3096 c-7 -16 1 -26 20 -26 7 0 13 9 13 20 0 23 -25 27 -33 6z"></path>
<path d="M3890 3081 c0 -5 5 -13 10 -16 6 -3 10 -2 10 4 0 5 -4 13 -10 16 -5
3 -10 2 -10 -4z"></path>
<path d="M3146 3063 c-6 -14 -5 -15 5 -6 7 7 10 15 7 18 -3 3 -9 -2 -12 -12z"></path>
<path d="M2657 2565 c-25 -18 -21 -25 12 -25 36 0 46 12 22 27 -12 8 -22 7
-34 -2z"></path>
<path d="M3027 2502 c-18 -8 -47 -55 -47 -78 0 -18 -2 -18 45 6 22 11 56 20
77 20 44 0 51 20 16 44 -23 17 -60 20 -91 8z"></path>
<path d="M2674 2489 c-7 -12 12 -29 34 -29 10 0 10 4 0 20 -14 23 -24 25 -34
9z"></path>
<path d="M1756 2481 c-3 -4 5 -18 18 -30 18 -17 25 -19 29 -9 10 27 -33 63
-47 39z"></path>
<path d="M2564 2480 c-5 -4 -18 -10 -29 -13 -11 -3 -1 -5 23 -6 23 0 42 3 42
8 0 13 -26 21 -36 11z"></path>
<path d="M2110 2461 c0 -5 7 -14 15 -21 8 -7 15 -9 15 -5 0 4 6 3 13 -3 14
-12 57 -5 57 9 0 12 -44 29 -76 29 -13 0 -24 -4 -24 -9z"></path>
<path d="M2449 2463 c-10 -2 -19 -14 -22 -25 -5 -18 -8 -19 -22 -8 -13 11 -18
10 -30 -6 -8 -10 -15 -21 -15 -24 0 -13 32 -50 44 -50 30 0 29 -53 -1 -64 -13
-5 -13 -8 1 -22 9 -8 16 -22 16 -30 0 -15 27 -19 47 -6 6 4 11 32 11 67 -1 33
3 75 7 93 6 28 5 31 -10 25 -16 -5 -17 -2 -12 25 4 18 5 31 4 31 -1 -1 -9 -3
-18 -6z m1 -42 c0 -10 -8 -21 -17 -25 -10 -3 -24 -9 -30 -12 -8 -3 -13 1 -13
11 0 11 5 15 15 11 9 -3 20 3 27 14 16 25 18 25 18 1z"></path>
<path d="M2756 2455 c4 -9 11 -14 16 -13 15 5 11 23 -6 26 -11 2 -14 -2 -10
-13z"></path>
<path d="M2059 2426 c6 -7 9 -20 5 -29 -7 -19 -37 -32 -42 -18 -12 35 -42 -22
-42 -79 0 -33 2 -37 20 -33 30 8 51 -24 45 -64 -7 -41 10 -43 23 -3 9 24 16
29 36 28 19 -2 26 -8 26 -23 0 -11 6 -28 14 -37 16 -22 36 -5 36 32 0 31 25
70 45 70 15 0 25 -31 22 -65 -1 -11 3 -21 8 -23 6 -1 11 16 13 38 2 22 8 40
13 40 16 0 38 25 49 56 11 28 5 76 -13 105 -9 15 -12 15 -29 0 -22 -18 -23
-29 -4 -50 18 -22 27 -63 17 -80 -11 -17 -41 -7 -41 13 0 9 -11 18 -25 22 -14
3 -25 10 -25 15 0 5 -6 6 -14 3 -27 -10 -96 41 -96 71 0 13 -21 25 -42 25 -7
0 -6 -5 1 -14z m-29 -85 c0 -5 -6 -14 -14 -20 -11 -9 -15 -7 -19 9 -4 15 0 20
14 20 10 0 19 -4 19 -9z"></path>
<path d="M2540 2390 c-8 -8 -15 -32 -16 -52 0 -36 1 -37 31 -36 18 1 37 -2 43
-6 8 -4 16 3 22 19 15 39 13 47 -11 35 -11 -7 -22 -10 -23 -8 -1 2 -9 17 -17
33 -12 27 -16 29 -29 15z"></path>
<path d="M2714 2349 c3 -17 6 -41 6 -52 0 -15 3 -18 11 -10 13 13 2 93 -13 93
-6 0 -8 -12 -4 -31z"></path>
<path d="M2376 2243 c-3 -4 -6 -17 -6 -30 0 -16 6 -23 20 -23 12 0 20 7 20 16
0 18 -25 46 -34 37z"></path>
<path d="M2326 2214 c-16 -15 -13 -39 3 -29 9 5 22 45 16 45 -2 0 -11 -7 -19
-16z"></path>
<path d="M2089 2148 c0 -2 -2 -13 -3 -25 -4 -32 -12 -38 -50 -35 -35 3 -62
-18 -53 -42 4 -10 19 -13 49 -12 35 2 43 6 41 21 -1 11 4 24 12 29 16 14 26
54 14 62 -5 3 -9 4 -10 2z"></path>
<path d="M2506 1941 c-7 -10 19 -41 35 -41 5 0 7 10 5 23 -3 23 -30 35 -40 18z"></path>
<path d="M1958 1383 c-27 -7 -22 -23 7 -23 16 0 25 6 25 15 0 15 -2 16 -32 8z"></path>
<path d="M1944 936 c-14 -36 0 -51 49 -54 26 -2 47 -1 47 3 0 10 -65 64 -78
65 -7 0 -15 -6 -18 -14z"></path>
<path d="M2718 938 c17 -21 62 -30 62 -12 0 8 -9 14 -19 14 -11 0 -28 3 -38 7
-15 6 -16 4 -5 -9z"></path>
<path d="M2373 913 c9 -2 23 -2 30 0 6 3 -1 5 -18 5 -16 0 -22 -2 -12 -5z"></path>
<path d="M2695 745 l-30 -13 33 -1 c22 -1 32 4 32 14 0 8 -1 15 -2 15 -2 -1
-16 -7 -33 -15z"></path>
<path d="M5 630 c3 -5 15 -10 26 -10 10 0 19 5 19 10 0 6 -12 10 -26 10 -14 0
-23 -4 -19 -10z"></path>
<path d="M60 571 c0 -5 5 -13 10 -16 6 -3 10 -2 10 4 0 5 -4 13 -10 16 -5 3
-10 2 -10 -4z"></path>
<path d="M60 428 c0 -7 5 -20 10 -28 8 -12 10 -11 10 7 0 12 -4 25 -10 28 -5
3 -10 0 -10 -7z"></path>
<path d="M218 412 c-10 -2 -18 -8 -18 -13 0 -13 27 -11 35 2 9 13 4 16 -17 11z"></path>
<path d="M5812 43 c-10 -10 -10 -13 4 -13 10 0 14 -5 10 -15 -4 -11 1 -15 19
-15 20 0 25 5 25 24 0 28 -38 41 -58 19z"></path>
<path d="M5910 20 c0 -11 5 -20 10 -20 6 0 10 9 10 20 0 11 -4 20 -10 20 -5 0
-10 -9 -10 -20z"></path>
</g>
</svg>